<svg version="1.1" viewBox="0.0 0.0 533.0 467.0" fill="none" stroke="none" stroke-linecap="square" stroke-miterlimit="10" width="533" height="467" xmlns:xlink="http://www.w3.org/1999/xlink" xmlns="http://www.w3.org/2000/svg"><path fill="#ffffff" d="M0 0L533.0 0L533.0 467.0L0 467.0L0 0Z" fill-rule="nonzero"/><path stroke="#cccccc" stroke-width="1.0" stroke-linecap="butt" d="M133.5 99.5L133.5 391.5" fill-rule="nonzero"/><path stroke="#cccccc" stroke-width="1.0" stroke-linecap="butt" d="M238.5 99.5L238.5 391.5" fill-rule="nonzero"/><path stroke="#cccccc" stroke-width="1.0" stroke-linecap="butt" d="M342.5 99.5L342.5 391.5" fill-rule="nonzero"/><path stroke="#cccccc" stroke-width="1.0" stroke-linecap="butt" d="M447.5 99.5L447.5 391.5" fill-rule="nonzero"/><path stroke="#333333" stroke-width="1.0" stroke-linecap="butt" d="M50.5 391.5L509.5 391.5" fill-rule="nonzero"/><path stroke="#cccccc" stroke-width="1.0" stroke-linecap="butt" d="M50.5 349.5L509.5 349.5" fill-rule="nonzero"/><path stroke="#cccccc" stroke-width="1.0" stroke-linecap="butt" d="M50.5 308.5L509.5 308.5" fill-rule="nonzero"/><path stroke="#cccccc" stroke-width="1.0" stroke-linecap="butt" d="M50.5 266.5L509.5 266.5" fill-rule="nonzero"/><path stroke="#cccccc" stroke-width="1.0" stroke-linecap="butt" d="M50.5 224.5L509.5 224.5" fill-rule="nonzero"/><path stroke="#cccccc" stroke-width="1.0" stroke-linecap="butt" d="M50.5 182.5L509.5 182.5" fill-rule="nonzero"/><path stroke="#cccccc" stroke-width="1.0" stroke-linecap="butt" d="M50.5 141.5L509.5 141.5" fill-rule="nonzero"/><path stroke="#cccccc" stroke-width="1.0" stroke-linecap="butt" d="M50.5 99.5L509.5 99.5" fill-rule="nonzero"/><clipPath id="id_0"><path d="M50.35 99.48333L509.65 99.48333L509.65 391.65L50.35 391.65L50.35 99.48333Z" clip-rule="nonzero"/></clipPath><path stroke="#4285f4" stroke-width="2.0" stroke-linecap="butt" clip-path="url(#id_0)" d="M50.35 380.7981L92.104546 346.072L154.73636 311.0955L217.36818 257.83768L280.0 248.15443L300.87726 258.422L363.5091 261.8445L447.0182 154.41066L509.65 140.80405" fill-rule="nonzero"/><path stroke="#ea4335" stroke-width="2.0" stroke-linecap="butt" clip-path="url(#id_0)" d="M50.35 380.7981L92.104546 374.53738L154.73636 372.03308L217.36818 374.2035L280.0 371.19833L300.87726 372.53397L363.5091 365.77237L447.0182 364.52023L509.65 363.76895" fill-rule="nonzero"/><path stroke="#fbbc04" stroke-width="2.0" stroke-linecap="butt" clip-path="url(#id_0)" d="M50.35 382.30066L92.104546 369.19492L154.73636 374.37042L217.36818 368.69406L280.0 372.03308L300.87726 346.48938L363.5091 360.096L447.0182 334.05142L509.65 317.52313" fill-rule="nonzero"/><path fill="#000000" fill-opacity="0.0" clip-path="url(#id_0)" d="M53.35 380.7981C53.35 382.45496 52.006855 383.7981 50.35 383.7981C48.693146 383.7981 47.35 382.45496 47.35 380.7981C47.35 379.14124 48.693146 377.7981 50.35 377.7981C52.006855 377.7981 53.35 379.14124 53.35 380.7981Z" fill-rule="nonzero"/><path fill="#000000" fill-opacity="0.0" clip-path="url(#id_0)" d="M95.104546 346.072C95.104546 347.72885 93.7614 349.072 92.104546 349.072C90.44769 349.072 89.104546 347.72885 89.104546 346.072C89.104546 344.41513 90.44769 343.072 92.104546 343.072C93.7614 343.072 95.104546 344.41513 95.104546 346.072Z" fill-rule="nonzero"/><path fill="#000000" fill-opacity="0.0" clip-path="url(#id_0)" d="M157.73636 311.0955C157.73636 312.75232 156.39322 314.0955 154.73636 314.0955C153.07951 314.0955 151.73636 312.75232 151.73636 311.0955C151.73636 309.43863 153.07951 308.0955 154.73636 308.0955C156.39322 308.0955 157.73636 309.43863 157.73636 311.0955Z" fill-rule="nonzero"/><path fill="#000000" fill-opacity="0.0" clip-path="url(#id_0)" d="M220.36818 257.83768C220.36818 259.4945 219.02504 260.83768 217.36818 260.83768C215.71133 260.83768 214.36818 259.4945 214.36818 257.83768C214.36818 256.18082 215.71133 254.83766 217.36818 254.83766C219.02504 254.83766 220.36818 256.18082 220.36818 257.83768Z" fill-rule="nonzero"/><path fill="#000000" fill-opacity="0.0" clip-path="url(#id_0)" d="M283.0 248.15443C283.0 249.81128 281.65686 251.15443 280.0 251.15443C278.34314 251.15443 277.0 249.81128 277.0 248.15443C277.0 246.49757 278.34314 245.15443 280.0 245.15443C281.65686 245.15443 283.0 246.49757 283.0 248.15443Z" fill-rule="nonzero"/><path fill="#000000" fill-opacity="0.0" clip-path="url(#id_0)" d="M303.87726 258.422C303.87726 260.07886 302.53412 261.422 300.87726 261.422C299.22043 261.422 297.87726 260.07886 297.87726 258.422C297.87726 256.76514 299.22043 255.422 300.87726 255.422C302.53412 255.422 303.87726 256.76514 303.87726 258.422Z" fill-rule="nonzero"/><path fill="#000000" fill-opacity="0.0" clip-path="url(#id_0)" d="M366.5091 261.8445C366.5091 263.50137 365.16595 264.8445 363.5091 264.8445C361.85223 264.8445 360.5091 263.50137 360.5091 261.8445C360.5091 260.18768 361.85223 258.8445 363.5091 258.8445C365.16595 258.8445 366.5091 260.18768 366.5091 261.8445Z" fill-rule="nonzero"/><path fill="#000000" fill-opacity="0.0" clip-path="url(#id_0)" d="M450.0182 154.41066C450.0182 156.06752 448.67505 157.41066 447.0182 157.41066C445.36133 157.41066 444.0182 156.06752 444.0182 154.41066C444.0182 152.75381 445.36133 151.41066 447.0182 151.41066C448.67505 151.41066 450.0182 152.75381 450.0182 154.41066Z" fill-rule="nonzero"/><path fill="#000000" fill-opacity="0.0" clip-path="url(#id_0)" d="M512.65 140.80405C512.65 142.4609 511.30685 143.80405 509.65 143.80405C507.99313 143.80405 506.65 142.4609 506.65 140.80405C506.65 139.14719 507.99313 137.80405 509.65 137.80405C511.30685 137.80405 512.65 139.14719 512.65 140.80405Z" fill-rule="nonzero"/><path fill="#000000" fill-opacity="0.0" clip-path="url(#id_0)" d="M53.35 380.7981C53.35 382.45496 52.006855 383.7981 50.35 383.7981C48.693146 383.7981 47.35 382.45496 47.35 380.7981C47.35 379.14124 48.693146 377.7981 50.35 377.7981C52.006855 377.7981 53.35 379.14124 53.35 380.7981Z" fill-rule="nonzero"/><path fill="#000000" fill-opacity="0.0" clip-path="url(#id_0)" d="M95.104546 374.53738C95.104546 376.19424 93.7614 377.53738 92.104546 377.53738C90.44769 377.53738 89.104546 376.19424 89.104546 374.53738C89.104546 372.88052 90.44769 371.53738 92.104546 371.53738C93.7614 371.53738 95.104546 372.88052 95.104546 374.53738Z" fill-rule="nonzero"/><path fill="#000000" fill-opacity="0.0" clip-path="url(#id_0)" d="M157.73636 372.03308C157.73636 373.68994 156.39322 375.03308 154.73636 375.03308C153.07951 375.03308 151.73636 373.68994 151.73636 372.03308C151.73636 370.37625 153.07951 369.03308 154.73636 369.03308C156.39322 369.03308 157.73636 370.37625 157.73636 372.03308Z" fill-rule="nonzero"/><path fill="#000000" fill-opacity="0.0" clip-path="url(#id_0)" d="M220.36818 374.2035C220.36818 375.86032 219.02504 377.2035 217.36818 377.2035C215.71133 377.2035 214.36818 375.86032 214.36818 374.2035C214.36818 372.54663 215.71133 371.2035 217.36818 371.2035C219.02504 371.2035 220.36818 372.54663 220.36818 374.2035Z" fill-rule="nonzero"/><path fill="#000000" fill-opacity="0.0" clip-path="url(#id_0)" d="M283.0 371.19833C283.0 372.8552 281.65686 374.19833 280.0 374.19833C278.34314 374.19833 277.0 372.8552 277.0 371.19833C277.0 369.54147 278.34314 368.19833 280.0 368.19833C281.65686 368.19833 283.0 369.54147 283.0 371.19833Z" fill-rule="nonzero"/><path fill="#000000" fill-opacity="0.0" clip-path="url(#id_0)" d="M303.87726 372.53397C303.87726 374.1908 302.53412 375.53397 300.87726 375.53397C299.22043 375.53397 297.87726 374.1908 297.87726 372.53397C297.87726 370.8771 299.22043 369.53397 300.87726 369.53397C302.53412 369.53397 303.87726 370.8771 303.87726 372.53397Z" fill-rule="nonzero"/><path fill="#000000" fill-opacity="0.0" clip-path="url(#id_0)" d="M366.5091 365.77237C366.5091 367.42923 365.16595 368.77237 363.5091 368.77237C361.85223 368.77237 360.5091 367.42923 360.5091 365.77237C360.5091 364.11554 361.85223 362.77237 363.5091 362.77237C365.16595 362.77237 366.5091 364.11554 366.5091 365.77237Z" fill-rule="nonzero"/><path fill="#000000" fill-opacity="0.0" clip-path="url(#id_0)" d="M450.0182 364.52023C450.0182 366.1771 448.67505 367.52023 447.0182 367.52023C445.36133 367.52023 444.0182 366.1771 444.0182 364.52023C444.0182 362.86337 445.36133 361.52023 447.0182 361.52023C448.67505 361.52023 450.0182 362.86337 450.0182 364.52023Z" fill-rule="nonzero"/><path fill="#000000" fill-opacity="0.0" clip-path="url(#id_0)" d="M512.65 363.76895C512.65 365.4258 511.30685 366.76895 509.65 366.76895C507.99313 366.76895 506.65 365.4258 506.65 363.76895C506.65 362.1121 507.99313 360.76895 509.65 360.76895C511.30685 360.76895 512.65 362.1121 512.65 363.76895Z" fill-rule="nonzero"/><path fill="#000000" fill-opacity="0.0" clip-path="url(#id_0)" d="M53.35 382.30066C53.35 383.95752 52.006855 385.30066 50.35 385.30066C48.693146 385.30066 47.35 383.95752 47.35 382.30066C47.35 380.6438 48.693146 379.30066 50.35 379.30066C52.006855 379.30066 53.35 380.6438 53.35 382.30066Z" fill-rule="nonzero"/><path fill="#000000" fill-opacity="0.0" clip-path="url(#id_0)" d="M95.104546 369.19492C95.104546 370.85175 93.7614 372.19492 92.104546 372.19492C90.44769 372.19492 89.104546 370.85175 89.104546 369.19492C89.104546 367.53806 90.44769 366.19492 92.104546 366.19492C93.7614 366.19492 95.104546 367.53806 95.104546 369.19492Z" fill-rule="nonzero"/><path fill="#000000" fill-opacity="0.0" clip-path="url(#id_0)" d="M157.73636 374.37042C157.73636 376.02728 156.39322 377.37042 154.73636 377.37042C153.07951 377.37042 151.73636 376.02728 151.73636 374.37042C151.73636 372.71356 153.07951 371.37042 154.73636 371.37042C156.39322 371.37042 157.73636 372.71356 157.73636 374.37042Z" fill-rule="nonzero"/><path fill="#000000" fill-opacity="0.0" clip-path="url(#id_0)" d="M220.36818 368.69406C220.36818 370.3509 219.02504 371.69406 217.36818 371.69406C215.71133 371.69406 214.36818 370.3509 214.36818 368.69406C214.36818 367.0372 215.71133 365.69406 217.36818 365.69406C219.02504 365.69406 220.36818 367.0372 220.36818 368.69406Z" fill-rule="nonzero"/><path fill="#000000" fill-opacity="0.0" clip-path="url(#id_0)" d="M283.0 372.03308C283.0 373.68994 281.65686 375.03308 280.0 375.03308C278.34314 375.03308 277.0 373.68994 277.0 372.03308C277.0 370.37625 278.34314 369.03308 280.0 369.03308C281.65686 369.03308 283.0 370.37625 283.0 372.03308Z" fill-rule="nonzero"/><path fill="#000000" fill-opacity="0.0" clip-path="url(#id_0)" d="M303.87726 346.48938C303.87726 348.14624 302.53412 349.48938 300.87726 349.48938C299.22043 349.48938 297.87726 348.14624 297.87726 346.48938C297.87726 344.83252 299.22043 343.48938 300.87726 343.48938C302.53412 343.48938 303.87726 344.83252 303.87726 346.48938Z" fill-rule="nonzero"/><path fill="#000000" fill-opacity="0.0" clip-path="url(#id_0)" d="M366.5091 360.096C366.5091 361.75287 365.16595 363.096 363.5091 363.096C361.85223 363.096 360.5091 361.75287 360.5091 360.096C360.5091 358.43915 361.85223 357.096 363.5091 357.096C365.16595 357.096 366.5091 358.43915 366.5091 360.096Z" fill-rule="nonzero"/><path fill="#000000" fill-opacity="0.0" clip-path="url(#id_0)" d="M450.0182 334.05142C450.0182 335.70828 448.67505 337.05142 447.0182 337.05142C445.36133 337.05142 444.0182 335.70828 444.0182 334.05142C444.0182 332.39456 445.36133 331.05142 447.0182 331.05142C448.67505 331.05142 450.0182 332.39456 450.0182 334.05142Z" fill-rule="nonzero"/><path fill="#000000" fill-opacity="0.0" clip-path="url(#id_0)" d="M512.65 317.52313C512.65 319.18 511.30685 320.52313 509.65 320.52313C507.99313 320.52313 506.65 319.18 506.65 317.52313C506.65 315.8663 507.99313 314.52313 509.65 314.52313C511.30685 314.52313 512.65 315.8663 512.65 317.52313Z" fill-rule="nonzero"/><path fill="#000000" d="M257.54688 437.88437L258.60938 437.79062Q258.6875 438.44687 258.96875 438.85312Q259.25 439.25937 259.82812 439.525Q260.42188 439.775 261.15625 439.775Q261.79688 439.775 262.29688 439.5875Q262.79688 439.38437 263.03125 439.05624Q263.28125 438.7125 263.28125 438.32187Q263.28125 437.91562 263.04688 437.61874Q262.8125 437.30624 262.28125 437.10312Q261.92188 436.9625 260.73438 436.68124Q259.5625 436.4 259.09375 436.15Q258.46875 435.82187 258.17188 435.35312Q257.875 434.86874 257.875 434.275Q257.875 433.63437 258.23438 433.07187Q258.60938 432.49374 259.3125 432.2125Q260.03125 431.91562 260.89062 431.91562Q261.84375 431.91562 262.57812 432.22812Q263.3125 432.525 263.70312 433.13437Q264.09375 433.72812 264.125 434.47812L263.03125 434.55624Q262.9375 433.74374 262.42188 433.3375Q261.92188 432.91562 260.9375 432.91562Q259.90625 432.91562 259.4375 433.29062Q258.96875 433.66562 258.96875 434.19687Q258.96875 434.66562 259.29688 434.9625Q259.625 435.25937 261.0 435.57187Q262.39062 435.88437 262.90625 436.11874Q263.65625 436.47812 264.01562 437.00937Q264.375 437.525 264.375 438.22812Q264.375 438.91562 263.98438 439.525Q263.59375 440.11874 262.85938 440.4625Q262.125 440.79062 261.20312 440.79062Q260.03125 440.79062 259.23438 440.4625Q258.45312 440.11874 258.0 439.43124Q257.5625 438.74374 257.54688 437.88437ZM265.40625 437.54062Q265.40625 435.80624 266.35938 434.97812Q267.15625 434.29062 268.3125 434.29062Q269.59375 434.29062 270.40625 435.13437Q271.23438 435.9625 271.23438 437.44687Q271.23438 438.65 270.875 439.3375Q270.51562 440.025 269.8125 440.41562Q269.125 440.79062 268.3125 440.79062Q267.01562 440.79062 266.20312 439.9625Q265.40625 439.11874 265.40625 437.54062ZM266.48438 437.54062Q266.48438 438.72812 267.0 439.32187Q267.53125 439.91562 268.3125 439.91562Q269.10938 439.91562 269.625 439.32187Q270.14062 438.72812 270.14062 437.50937Q270.14062 436.35312 269.60938 435.75937Q269.09375 435.16562 268.3125 435.16562Q267.53125 435.16562 267.0 435.75937Q266.48438 436.3375 266.48438 437.54062ZM268.32812 432.65L267.67188 433.65L266.45312 433.65L267.71875 432.00937L268.84375 432.00937L270.17188 433.65L268.96875 433.65L268.32812 432.65ZM268.51562 429.94687L269.92188 429.94687L268.57812 431.5875L267.71875 431.5875L268.51562 429.94687ZM278.09375 439.7125L278.25 440.63437Q277.79688 440.72812 277.45312 440.72812Q276.875 440.72812 276.5625 440.55624Q276.25 440.36874 276.10938 440.07187Q275.98438 439.775 275.98438 438.82187L275.98438 435.24374L275.21875 435.24374L275.21875 434.43124L275.98438 434.43124L275.98438 432.88437L277.03125 432.25937L277.03125 434.43124L278.09375 434.43124L278.09375 435.24374L277.03125 435.24374L277.03125 438.88437Q277.03125 439.3375 277.07812 439.4625Q277.14062 439.5875 277.26562 439.66562Q277.39062 439.74374 277.625 439.74374Q277.8125 439.74374 278.09375 439.7125ZM278.78125 440.65L278.78125 434.43124L279.73438 434.43124L279.73438 435.36874Q280.09375 434.7125 280.39062 434.50937Q280.70312 434.29062 281.07812 434.29062Q281.60938 434.29062 282.15625 434.61874L281.79688 435.60312Q281.40625 435.36874 281.03125 435.36874Q280.67188 435.36874 280.39062 435.5875Q280.125 435.79062 280.01562 436.16562Q279.82812 436.72812 279.82812 437.38437L279.82812 440.65L278.78125 440.65ZM286.85938 439.88437Q286.26562 440.38437 285.71875 440.5875Q285.1875 440.79062 284.5625 440.79062Q283.53125 440.79062 282.98438 440.29062Q282.4375 439.79062 282.4375 439.00937Q282.4375 438.55624 282.64062 438.18124Q282.84375 437.79062 283.1875 437.57187Q283.53125 437.3375 283.95312 437.22812Q284.25 437.13437 284.89062 437.05624Q286.15625 436.91562 286.76562 436.69687Q286.76562 436.47812 286.76562 436.43124Q286.76562 435.775 286.46875 435.50937Q286.0625 435.16562 285.26562 435.16562Q284.53125 435.16562 284.17188 435.43124Q283.8125 435.68124 283.64062 436.3375L282.60938 436.19687Q282.75 435.54062 283.07812 435.13437Q283.40625 434.72812 284.01562 434.50937Q284.625 434.29062 285.42188 434.29062Q286.21875 434.29062 286.71875 434.47812Q287.21875 434.66562 287.45312 434.94687Q287.6875 435.22812 287.78125 435.66562Q287.82812 435.93124 287.82812 436.63437L287.82812 438.04062Q287.82812 439.50937 287.89062 439.9Q287.96875 440.29062 288.17188 440.65L287.0625 440.65Q286.90625 440.32187 286.85938 439.88437ZM286.76562 437.525Q286.1875 437.75937 285.04688 437.93124Q284.39062 438.025 284.125 438.15Q283.85938 438.25937 283.70312 438.47812Q283.5625 438.69687 283.5625 438.97812Q283.5625 439.4 283.875 439.68124Q284.20312 439.9625 284.8125 439.9625Q285.42188 439.9625 285.89062 439.69687Q286.375 439.43124 286.59375 438.9625Q286.76562 438.60312 286.76562 437.91562L286.76562 437.525ZM289.79688 440.65L289.79688 434.43124L290.73438 434.43124L290.73438 435.30624Q291.42188 434.29062 292.71875 434.29062Q293.28125 434.29062 293.75 434.49374Q294.23438 434.69687 294.46875 435.025Q294.70312 435.35312 294.79688 435.79062Q294.84375 436.0875 294.84375 436.82187L294.84375 440.65L293.79688 440.65L293.79688 436.86874Q293.79688 436.2125 293.67188 435.9Q293.54688 435.5875 293.23438 435.4Q292.92188 435.19687 292.5 435.19687Q291.82812 435.19687 291.32812 435.63437Q290.84375 436.05624 290.84375 437.24374L290.84375 440.65L289.79688 440.65ZM296.59375 441.16562L297.625 441.32187Q297.6875 441.79062 297.98438 442.00937Q298.375 442.30624 299.04688 442.30624Q299.78125 442.30624 300.17188 442.00937Q300.57812 441.7125 300.71875 441.19687Q300.8125 440.86874 300.79688 439.8375Q300.10938 440.65 299.07812 440.65Q297.79688 440.65 297.09375 439.72812Q296.39062 438.79062 296.39062 437.50937Q296.39062 436.61874 296.70312 435.86874Q297.03125 435.10312 297.64062 434.69687Q298.25 434.29062 299.07812 434.29062Q300.1875 434.29062 300.90625 435.18124L300.90625 434.43124L301.875 434.43124L301.875 439.80624Q301.875 441.25937 301.57812 441.86874Q301.28125 442.47812 300.64062 442.82187Q300.0 443.18124 299.0625 443.18124Q297.95312 443.18124 297.26562 442.68124Q296.57812 442.18124 296.59375 441.16562ZM297.46875 437.43124Q297.46875 438.65 297.95312 439.2125Q298.4375 439.775 299.17188 439.775Q299.90625 439.775 300.39062 439.2125Q300.89062 438.65 300.89062 437.4625Q300.89062 436.32187 300.375 435.74374Q299.875 435.16562 299.15625 435.16562Q298.45312 435.16562 297.95312 435.74374Q297.46875 436.30624 297.46875 437.43124Z" fill-rule="nonzero"/><path fill="#000000" d="M37.85 391.41562Q37.85 389.88437 38.1625 388.9625Q38.475 388.025 39.084373 387.525Q39.709373 387.025 40.646873 387.025Q41.334373 387.025 41.85 387.30624Q42.38125 387.5875 42.725 388.11874Q43.06875 388.63437 43.25625 389.38437Q43.44375 390.13437 43.44375 391.41562Q43.44375 392.93124 43.13125 393.85312Q42.834373 394.775 42.209373 395.29062Q41.6 395.79062 40.646873 395.79062Q39.4125 395.79062 38.69375 394.9Q37.85 393.8375 37.85 391.41562ZM38.928123 391.41562Q38.928123 393.525 39.428123 394.22812Q39.928123 394.93124 40.646873 394.93124Q41.38125 394.93124 41.865623 394.22812Q42.365623 393.525 42.365623 391.41562Q42.365623 389.29062 41.865623 388.60312Q41.38125 387.9 40.63125 387.9Q39.9125 387.9 39.475 388.50937Q38.928123 389.29062 38.928123 391.41562Z" fill-rule="nonzero"/><path fill="#000000" d="M37.85 351.6619L38.959373 351.56815Q39.084373 352.38065 39.521873 352.7869Q39.975 353.19315 40.615623 353.19315Q41.365623 353.19315 41.896873 352.61502Q42.428123 352.0369 42.428123 351.0994Q42.428123 350.19315 41.9125 349.67752Q41.4125 349.14627 40.584373 349.14627Q40.084373 349.14627 39.6625 349.38065Q39.25625 349.61502 39.021873 349.9744L38.0375 349.8494L38.865623 345.44315L43.146873 345.44315L43.146873 346.44315L39.709373 346.44315L39.25625 348.75565Q40.021873 348.20877 40.865623 348.20877Q41.990623 348.20877 42.75625 348.99002Q43.5375 349.77127 43.5375 351.00565Q43.5375 352.1619 42.865623 353.02127Q42.0375 354.05252 40.615623 354.05252Q39.44375 354.05252 38.69375 353.39627Q37.959373 352.74002 37.85 351.6619Z" fill-rule="nonzero"/><path fill="#000000" d="M34.81875 312.1738L33.771873 312.1738L33.771873 305.45505Q33.38125 305.81442 32.75625 306.18942Q32.146873 306.5488 31.6625 306.72067L31.6625 305.70505Q32.5375 305.28317 33.19375 304.70505Q33.865623 304.1113 34.146873 303.5488L34.81875 303.5488L34.81875 312.1738ZM37.85 307.93942Q37.85 306.40817 38.1625 305.4863Q38.475 304.5488 39.084373 304.0488Q39.709373 303.5488 40.646873 303.5488Q41.334373 303.5488 41.85 303.83005Q42.38125 304.1113 42.725 304.64255Q43.06875 305.15817 43.25625 305.90817Q43.44375 306.65817 43.44375 307.93942Q43.44375 309.45505 43.13125 310.37692Q42.834373 311.2988 42.209373 311.81442Q41.6 312.31442 40.646873 312.31442Q39.4125 312.31442 38.69375 311.4238Q37.85 310.3613 37.85 307.93942ZM38.928123 307.93942Q38.928123 310.0488 39.428123 310.75192Q39.928123 311.45505 40.646873 311.45505Q41.38125 311.45505 41.865623 310.75192Q42.365623 310.0488 42.365623 307.93942Q42.365623 305.81442 41.865623 305.12692Q41.38125 304.4238 40.63125 304.4238Q39.9125 304.4238 39.475 305.03317Q38.928123 305.81442 38.928123 307.93942Z" fill-rule="nonzero"/><path fill="#000000" d="M34.81875 270.4357L33.771873 270.4357L33.771873 263.71695Q33.38125 264.07632 32.75625 264.45132Q32.146873 264.8107 31.6625 264.98257L31.6625 263.96695Q32.5375 263.54507 33.19375 262.96695Q33.865623 262.3732 34.146873 261.8107L34.81875 261.8107L34.81875 270.4357ZM37.85 268.1857L38.959373 268.09195Q39.084373 268.90445 39.521873 269.3107Q39.975 269.71695 40.615623 269.71695Q41.365623 269.71695 41.896873 269.13882Q42.428123 268.5607 42.428123 267.6232Q42.428123 266.71695 41.9125 266.20132Q41.4125 265.67007 40.584373 265.67007Q40.084373 265.67007 39.6625 265.90445Q39.25625 266.13882 39.021873 266.4982L38.0375 266.3732L38.865623 261.96695L43.146873 261.96695L43.146873 262.96695L39.709373 262.96695L39.25625 265.27945Q40.021873 264.73257 40.865623 264.73257Q41.990623 264.73257 42.75625 265.51382Q43.5375 266.29507 43.5375 267.52945Q43.5375 268.6857 42.865623 269.54507Q42.0375 270.57632 40.615623 270.57632Q39.44375 270.57632 38.69375 269.92007Q37.959373 269.26382 37.85 268.1857Z" fill-rule="nonzero"/><path fill="#000000" d="M36.396873 227.68199L36.396873 228.69762L30.709375 228.69762Q30.709375 228.32262 30.834375 227.96324Q31.053125 227.38512 31.521875 226.82262Q32.00625 226.26012 32.9125 225.52574Q34.31875 224.36949 34.803123 223.69762Q35.303123 223.02574 35.303123 222.43199Q35.303123 221.80699 34.85 221.38512Q34.396873 220.94762 33.678123 220.94762Q32.9125 220.94762 32.459373 221.40074Q32.00625 221.85387 31.990625 222.66637L30.9125 222.55699Q31.021875 221.33824 31.740625 220.71324Q32.475 220.07262 33.709373 220.07262Q34.94375 220.07262 35.6625 220.76012Q36.38125 221.44762 36.38125 222.46324Q36.38125 222.97887 36.1625 223.47887Q35.959373 223.96324 35.459373 224.52574Q34.975 225.07262 33.85 226.02574Q32.896873 226.82262 32.615623 227.11949Q32.35 227.40074 32.178123 227.68199L36.396873 227.68199ZM37.85 224.46324Q37.85 222.93199 38.1625 222.01012Q38.475 221.07262 39.084373 220.57262Q39.709373 220.07262 40.646873 220.07262Q41.334373 220.07262 41.85 220.35387Q42.38125 220.63512 42.725 221.16637Q43.06875 221.68199 43.25625 222.43199Q43.44375 223.18199 43.44375 224.46324Q43.44375 225.97887 43.13125 226.90074Q42.834373 227.82262 42.209373 228.33824Q41.6 228.83824 40.646873 228.83824Q39.4125 228.83824 38.69375 227.94762Q37.85 226.88512 37.85 224.46324ZM38.928123 224.46324Q38.928123 226.57262 39.428123 227.27574Q39.928123 227.97887 40.646873 227.97887Q41.38125 227.97887 41.865623 227.27574Q42.365623 226.57262 42.365623 224.46324Q42.365623 222.33824 41.865623 221.65074Q41.38125 220.94762 40.63125 220.94762Q39.9125 220.94762 39.475 221.55699Q38.928123 222.33824 38.928123 224.46324Z" fill-rule="nonzero"/><path fill="#000000" d="M36.396873 185.9439L36.396873 186.95952L30.709375 186.95952Q30.709375 186.58452 30.834375 186.22514Q31.053125 185.64702 31.521875 185.08452Q32.00625 184.52202 32.9125 183.78764Q34.31875 182.6314 34.803123 181.95952Q35.303123 181.28764 35.303123 180.6939Q35.303123 180.0689 34.85 179.64702Q34.396873 179.20952 33.678123 179.20952Q32.9125 179.20952 32.459373 179.66264Q32.00625 180.11577 31.990625 180.92827L30.9125 180.8189Q31.021875 179.60014 31.740625 178.97514Q32.475 178.33452 33.709373 178.33452Q34.94375 178.33452 35.6625 179.02202Q36.38125 179.70952 36.38125 180.72514Q36.38125 181.24077 36.1625 181.74077Q35.959373 182.22514 35.459373 182.78764Q34.975 183.33452 33.85 184.28764Q32.896873 185.08452 32.615623 185.3814Q32.35 185.66264 32.178123 185.9439L36.396873 185.9439ZM37.85 184.70952L38.959373 184.61577Q39.084373 185.42827 39.521873 185.83452Q39.975 186.24077 40.615623 186.24077Q41.365623 186.24077 41.896873 185.66264Q42.428123 185.08452 42.428123 184.14702Q42.428123 183.24077 41.9125 182.72514Q41.4125 182.1939 40.584373 182.1939Q40.084373 182.1939 39.6625 182.42827Q39.25625 182.66264 39.021873 183.02202L38.0375 182.89702L38.865623 178.49077L43.146873 178.49077L43.146873 179.49077L39.709373 179.49077L39.25625 181.80327Q40.021873 181.2564 40.865623 181.2564Q41.990623 181.2564 42.75625 182.03764Q43.5375 182.8189 43.5375 184.05327Q43.5375 185.20952 42.865623 186.0689Q42.0375 187.10014 40.615623 187.10014Q39.44375 187.10014 38.69375 186.4439Q37.959373 185.78764 37.85 184.70952Z" fill-rule="nonzero"/><path fill="#000000" d="M30.85 142.95581L31.9125 142.81519Q32.084373 143.70581 32.521873 144.11206Q32.959373 144.50269 33.584373 144.50269Q34.334373 144.50269 34.85 143.98706Q35.365623 143.47144 35.365623 142.70581Q35.365623 141.98706 34.88125 141.51831Q34.4125 141.03394 33.678123 141.03394Q33.38125 141.03394 32.928123 141.15894L33.053123 140.22144Q33.1625 140.23706 33.225 140.23706Q33.896873 140.23706 34.428123 139.89331Q34.975 139.53394 34.975 138.79956Q34.975 138.22144 34.584373 137.84644Q34.19375 137.45581 33.56875 137.45581Q32.959373 137.45581 32.5375 137.84644Q32.13125 138.23706 32.021873 139.00269L30.959375 138.81519Q31.146875 137.76831 31.834375 137.19019Q32.521873 136.59644 33.5375 136.59644Q34.240623 136.59644 34.834373 136.90894Q35.428123 137.20581 35.740623 137.72144Q36.053123 138.23706 36.053123 138.83081Q36.053123 139.37769 35.75625 139.84644Q35.459373 140.29956 34.88125 140.56519Q35.63125 140.73706 36.053123 141.29956Q36.475 141.84644 36.475 142.69019Q36.475 143.81519 35.646873 144.59644Q34.834373 145.37769 33.584373 145.37769Q32.459373 145.37769 31.709375 144.70581Q30.959375 144.01831 30.85 142.95581ZM37.85 140.98706Q37.85 139.45581 38.1625 138.53394Q38.475 137.59644 39.084373 137.09644Q39.709373 136.59644 40.646873 136.59644Q41.334373 136.59644 41.85 136.87769Q42.38125 137.15894 42.725 137.69019Q43.06875 138.20581 43.25625 138.95581Q43.44375 139.70581 43.44375 140.98706Q43.44375 142.50269 43.13125 143.42456Q42.834373 144.34644 42.209373 144.86206Q41.6 145.36206 40.646873 145.36206Q39.4125 145.36206 38.69375 144.47144Q37.85 143.40894 37.85 140.98706ZM38.928123 140.98706Q38.928123 143.09644 39.428123 143.79956Q39.928123 144.50269 40.646873 144.50269Q41.38125 144.50269 41.865623 143.79956Q42.365623 143.09644 42.365623 140.98706Q42.365623 138.86206 41.865623 138.17456Q41.38125 137.47144 40.63125 137.47144Q39.9125 137.47144 39.475 138.08081Q38.928123 138.86206 38.928123 140.98706Z" fill-rule="nonzero"/><path fill="#000000" d="M30.85 101.217705L31.9125 101.07708Q32.084373 101.967705 32.521873 102.373955Q32.959373 102.76458 33.584373 102.76458Q34.334373 102.76458 34.85 102.248955Q35.365623 101.73333 35.365623 100.967705Q35.365623 100.248955 34.88125 99.780205Q34.4125 99.29583 33.678123 99.29583Q33.38125 99.29583 32.928123 99.42083L33.053123 98.48333Q33.1625 98.498955 33.225 98.498955Q33.896873 98.498955 34.428123 98.155205Q34.975 97.79583 34.975 97.061455Q34.975 96.48333 34.584373 96.10833Q34.19375 95.717705 33.56875 95.717705Q32.959373 95.717705 32.5375 96.10833Q32.13125 96.498955 32.021873 97.26458L30.959375 97.07708Q31.146875 96.030205 31.834375 95.45208Q32.521873 94.85833 33.5375 94.85833Q34.240623 94.85833 34.834373 95.17083Q35.428123 95.467705 35.740623 95.98333Q36.053123 96.498955 36.053123 97.092705Q36.053123 97.63958 35.75625 98.10833Q35.459373 98.561455 34.88125 98.82708Q35.63125 98.998955 36.053123 99.561455Q36.475 100.10833 36.475 100.95208Q36.475 102.07708 35.646873 102.85833Q34.834373 103.63958 33.584373 103.63958Q32.459373 103.63958 31.709375 102.967705Q30.959375 102.280205 30.85 101.217705ZM37.85 101.23333L38.959373 101.13958Q39.084373 101.95208 39.521873 102.35833Q39.975 102.76458 40.615623 102.76458Q41.365623 102.76458 41.896873 102.186455Q42.428123 101.60833 42.428123 100.67083Q42.428123 99.76458 41.9125 99.248955Q41.4125 98.717705 40.584373 98.717705Q40.084373 98.717705 39.6625 98.95208Q39.25625 99.186455 39.021873 99.54583L38.0375 99.42083L38.865623 95.01458L43.146873 95.01458L43.146873 96.01458L39.709373 96.01458L39.25625 98.32708Q40.021873 97.780205 40.865623 97.780205Q41.990623 97.780205 42.75625 98.561455Q43.5375 99.342705 43.5375 100.57708Q43.5375 101.73333 42.865623 102.592705Q42.0375 103.623955 40.615623 103.623955Q39.44375 103.623955 38.69375 102.967705Q37.959373 102.311455 37.85 101.23333Z" fill-rule="nonzero"/><path fill="#000000" d="M130.85909 406.4L131.96846 406.30624Q132.09346 407.11874 132.53096 407.525Q132.98409 407.93124 133.62471 407.93124Q134.37471 407.93124 134.90596 407.35312Q135.43721 406.775 135.43721 405.8375Q135.43721 404.93124 134.92159 404.41562Q134.42159 403.88437 133.59346 403.88437Q133.09346 403.88437 132.67159 404.11874Q132.26534 404.35312 132.03096 404.7125L131.04659 404.5875L131.87471 400.18124L136.15596 400.18124L136.15596 401.18124L132.71846 401.18124L132.26534 403.49374Q133.03096 402.94687 133.87471 402.94687Q134.99971 402.94687 135.76534 403.72812Q136.54659 404.50937 136.54659 405.74374Q136.54659 406.9 135.87471 407.75937Q135.04659 408.79062 133.62471 408.79062Q132.45284 408.79062 131.70284 408.13437Q130.96846 407.47812 130.85909 406.4Z" fill-rule="nonzero"/><path fill="#000000" d="M235.7142 408.65L234.66733 408.65L234.66733 401.93124Q234.2767 402.29062 233.6517 402.66562Q233.04233 403.025 232.55795 403.19687L232.55795 402.18124Q233.43295 401.75937 234.0892 401.18124Q234.76108 400.5875 235.04233 400.025L235.7142 400.025L235.7142 408.65ZM238.74545 404.41562Q238.74545 402.88437 239.05795 401.9625Q239.37045 401.025 239.97983 400.525Q240.60483 400.025 241.54233 400.025Q242.22983 400.025 242.74545 400.30624Q243.2767 400.5875 243.62045 401.11874Q243.9642 401.63437 244.1517 402.38437Q244.3392 403.13437 244.3392 404.41562Q244.3392 405.93124 244.0267 406.85312Q243.72983 407.775 243.10483 408.29062Q242.49545 408.79062 241.54233 408.79062Q240.30795 408.79062 239.5892 407.9Q238.74545 406.8375 238.74545 404.41562ZM239.82358 404.41562Q239.82358 406.525 240.32358 407.22812Q240.82358 407.93124 241.54233 407.93124Q242.2767 407.93124 242.76108 407.22812Q243.26108 406.525 243.26108 404.41562Q243.26108 402.29062 242.76108 401.60312Q242.2767 400.9 241.5267 400.9Q240.80795 400.9 240.37045 401.50937Q239.82358 402.29062 239.82358 404.41562Z" fill-rule="nonzero"/><path fill="#000000" d="M340.10056 408.65L339.05368 408.65L339.05368 401.93124Q338.66306 402.29062 338.03806 402.66562Q337.42868 403.025 336.9443 403.19687L336.9443 402.18124Q337.8193 401.75937 338.47556 401.18124Q339.14743 400.5875 339.42868 400.025L340.10056 400.025L340.10056 408.65ZM343.1318 406.4L344.24118 406.30624Q344.36618 407.11874 344.80368 407.525Q345.2568 407.93124 345.89743 407.93124Q346.64743 407.93124 347.17868 407.35312Q347.70993 406.775 347.70993 405.8375Q347.70993 404.93124 347.1943 404.41562Q346.6943 403.88437 345.86618 403.88437Q345.36618 403.88437 344.9443 404.11874Q344.53806 404.35312 344.30368 404.7125L343.3193 404.5875L344.14743 400.18124L348.42868 400.18124L348.42868 401.18124L344.99118 401.18124L344.53806 403.49374Q345.30368 402.94687 346.14743 402.94687Q347.27243 402.94687 348.03806 403.72812Q348.8193 404.50937 348.8193 405.74374Q348.8193 406.9 348.14743 407.75937Q347.3193 408.79062 345.89743 408.79062Q344.72556 408.79062 343.97556 408.13437Q343.24118 407.47812 343.1318 406.4Z" fill-rule="nonzero"/><path fill="#000000" d="M446.06506 407.63437L446.06506 408.65L440.37756 408.65Q440.37756 408.275 440.50256 407.91562Q440.7213 407.3375 441.19006 406.775Q441.67444 406.2125 442.5807 405.47812Q443.98694 404.32187 444.4713 403.65Q444.9713 402.97812 444.9713 402.38437Q444.9713 401.75937 444.5182 401.3375Q444.06506 400.9 443.3463 400.9Q442.5807 400.9 442.12756 401.35312Q441.67444 401.80624 441.6588 402.61874L440.5807 402.50937Q440.69006 401.29062 441.4088 400.66562Q442.1432 400.025 443.37756 400.025Q444.61194 400.025 445.3307 400.7125Q446.04944 401.4 446.04944 402.41562Q446.04944 402.93124 445.8307 403.43124Q445.62756 403.91562 445.12756 404.47812Q444.6432 405.025 443.5182 405.97812Q442.56506 406.775 442.2838 407.07187Q442.0182 407.35312 441.8463 407.63437L446.06506 407.63437ZM447.5182 404.41562Q447.5182 402.88437 447.8307 401.9625Q448.1432 401.025 448.75256 400.525Q449.37756 400.025 450.31506 400.025Q451.00256 400.025 451.5182 400.30624Q452.04944 400.5875 452.3932 401.11874Q452.73694 401.63437 452.92444 402.38437Q453.11194 403.13437 453.11194 404.41562Q453.11194 405.93124 452.79944 406.85312Q452.50256 407.775 451.87756 408.29062Q451.2682 408.79062 450.31506 408.79062Q449.0807 408.79062 448.36194 407.9Q447.5182 406.8375 447.5182 404.41562ZM448.5963 404.41562Q448.5963 406.525 449.0963 407.22812Q449.5963 407.93124 450.31506 407.93124Q451.04944 407.93124 451.5338 407.22812Q452.0338 406.525 452.0338 404.41562Q452.0338 402.29062 451.5338 401.60312Q451.04944 400.9 450.29944 400.9Q449.5807 400.9 449.1432 401.50937Q448.5963 402.29062 448.5963 404.41562Z" fill-rule="nonzero"/><path stroke="#4285f4" stroke-width="4.0" stroke-linecap="butt" d="M81.5 69.916664L93.5 69.916664" fill-rule="nonzero"/><path fill="#1a1a1a" d="M104.609375 73.916664L104.609375 66.33854L101.78125 66.33854L101.78125 65.322914L108.59375 65.322914L108.59375 66.33854L105.75 66.33854L105.75 73.916664L104.609375 73.916664ZM113.375 73.916664L113.375 72.99479Q112.640625 74.05729 111.390625 74.05729Q110.84375 74.05729 110.359375 73.854164Q109.890625 73.635414 109.65625 73.322914Q109.421875 72.99479 109.328125 72.52604Q109.265625 72.229164 109.265625 71.541664L109.265625 67.697914L110.328125 67.697914L110.328125 71.15104Q110.328125 71.96354 110.390625 72.260414Q110.484375 72.666664 110.796875 72.916664Q111.125 73.15104 111.609375 73.15104Q112.078125 73.15104 112.484375 72.916664Q112.90625 72.666664 113.078125 72.24479Q113.265625 71.822914 113.265625 71.02604L113.265625 67.697914L114.3125 67.697914L114.3125 73.916664L113.375 73.916664ZM120.359375 73.15104Q119.765625 73.65104 119.21875 73.854164Q118.6875 74.05729 118.0625 74.05729Q117.03125 74.05729 116.484375 73.55729Q115.9375 73.05729 115.9375 72.27604Q115.9375 71.822914 116.140625 71.447914Q116.34375 71.05729 116.6875 70.83854Q117.03125 70.604164 117.453125 70.49479Q117.75 70.40104 118.390625 70.322914Q119.65625 70.18229 120.265625 69.96354Q120.265625 69.74479 120.265625 69.697914Q120.265625 69.041664 119.96875 68.77604Q119.5625 68.43229 118.765625 68.43229Q118.03125 68.43229 117.671875 68.697914Q117.3125 68.947914 117.140625 69.604164L116.109375 69.46354Q116.25 68.80729 116.578125 68.40104Q116.90625 67.99479 117.515625 67.77604Q118.125 67.55729 118.921875 67.55729Q119.71875 67.55729 120.21875 67.74479Q120.71875 67.93229 120.953125 68.21354Q121.1875 68.49479 121.28125 68.93229Q121.328125 69.197914 121.328125 69.90104L121.328125 71.30729Q121.328125 72.77604 121.390625 73.166664Q121.46875 73.55729 121.671875 73.916664L120.5625 73.916664Q120.40625 73.58854 120.359375 73.15104ZM120.265625 70.791664Q119.6875 71.02604 118.546875 71.197914Q117.890625 71.291664 117.625 71.416664Q117.359375 71.52604 117.203125 71.74479Q117.0625 71.96354 117.0625 72.24479Q117.0625 72.666664 117.375 72.947914Q117.703125 73.229164 118.3125 73.229164Q118.921875 73.229164 119.390625 72.96354Q119.875 72.697914 120.09375 72.229164Q120.265625 71.86979 120.265625 71.18229L120.265625 70.791664ZM118.8125 65.916664L118.15625 66.916664L116.9375 66.916664L118.203125 65.27604L119.328125 65.27604L120.65625 66.916664L119.453125 66.916664L118.8125 65.916664ZM119.34375 64.854164L118.484375 64.854164L117.140625 63.21354L118.546875 63.21354L119.34375 64.854164ZM123.296875 73.916664L123.296875 67.697914L124.234375 67.697914L124.234375 68.572914Q124.921875 67.55729 126.21875 67.55729Q126.78125 67.55729 127.25 67.760414Q127.734375 67.96354 127.96875 68.291664Q128.20312 68.61979 128.29688 69.05729Q128.34375 69.354164 128.34375 70.08854L128.34375 73.916664L127.296875 73.916664L127.296875 70.135414Q127.296875 69.479164 127.171875 69.166664Q127.046875 68.854164 126.734375 68.666664Q126.421875 68.46354 126.0 68.46354Q125.328125 68.46354 124.828125 68.90104Q124.34375 69.322914 124.34375 70.510414L124.34375 73.916664L123.296875 73.916664ZM135.59375 72.979164L135.75 73.90104Q135.29688 73.99479 134.95312 73.99479Q134.375 73.99479 134.0625 73.822914Q133.75 73.635414 133.60938 73.33854Q133.48438 73.041664 133.48438 72.08854L133.48438 68.510414L132.71875 68.510414L132.71875 67.697914L133.48438 67.697914L133.48438 66.15104L134.53125 65.52604L134.53125 67.697914L135.59375 67.697914L135.59375 68.510414L134.53125 68.510414L134.53125 72.15104Q134.53125 72.604164 134.57812 72.729164Q134.64062 72.854164 134.76562 72.93229Q134.89062 73.010414 135.125 73.010414Q135.3125 73.010414 135.59375 72.979164ZM142.04688 68.916664L142.04688 67.697914L143.17188 67.697914L143.17188 68.666664Q143.17188 69.572914 142.95312 69.947914Q142.42188 70.885414 141.3125 70.99479L141.3125 73.916664L140.375 73.916664L140.375 72.99479Q139.64062 74.05729 138.39062 74.05729Q137.84375 74.05729 137.35938 73.854164Q136.89062 73.635414 136.65625 73.322914Q136.42188 72.99479 136.32812 72.52604Q136.26562 72.21354 136.26562 71.541664L136.26562 67.697914L137.32812 67.697914L137.32812 71.15104Q137.32812 71.979164 137.39062 72.260414Q137.59375 73.15104 138.60938 73.15104Q139.09375 73.15104 139.5 72.90104Q139.92188 72.65104 140.09375 72.24479Q140.26562 71.822914 140.26562 71.02604L140.26562 67.697914L141.3125 67.697914L141.3125 70.55729Q142.0625 70.416664 142.42188 69.854164Q142.59375 69.604164 142.59375 68.916664L142.04688 68.916664ZM138.0 75.822914L138.0 74.61979L139.20312 74.61979L139.20312 75.822914L138.0 75.822914Z" fill-rule="nonzero"/><path stroke="#ea4335" stroke-width="4.0" stroke-linecap="butt" d="M159.5 69.916664L171.5 69.916664" fill-rule="nonzero"/><path fill="#1a1a1a" d="M180.04688 71.15104L181.10938 71.05729Q181.1875 71.71354 181.46875 72.11979Q181.75 72.52604 182.32812 72.791664Q182.92188 73.041664 183.65625 73.041664Q184.29688 73.041664 184.79688 72.854164Q185.29688 72.65104 185.53125 72.322914Q185.78125 71.979164 185.78125 71.58854Q185.78125 71.18229 185.54688 70.885414Q185.3125 70.572914 184.78125 70.36979Q184.42188 70.229164 183.23438 69.947914Q182.0625 69.666664 181.59375 69.416664Q180.96875 69.08854 180.67188 68.61979Q180.375 68.135414 180.375 67.541664Q180.375 66.90104 180.73438 66.33854Q181.10938 65.760414 181.8125 65.479164Q182.53125 65.18229 183.39062 65.18229Q184.34375 65.18229 185.07812 65.49479Q185.8125 65.791664 186.20312 66.40104Q186.59375 66.99479 186.625 67.74479L185.53125 67.822914Q185.4375 67.010414 184.92188 66.604164Q184.42188 66.18229 183.4375 66.18229Q182.40625 66.18229 181.9375 66.55729Q181.46875 66.93229 181.46875 67.46354Q181.46875 67.93229 181.79688 68.229164Q182.125 68.52604 183.5 68.83854Q184.89062 69.15104 185.40625 69.385414Q186.15625 69.74479 186.51562 70.27604Q186.875 70.791664 186.875 71.49479Q186.875 72.18229 186.48438 72.791664Q186.09375 73.385414 185.35938 73.729164Q184.625 74.05729 183.70312 74.05729Q182.53125 74.05729 181.73438 73.729164Q180.95312 73.385414 180.5 72.697914Q180.0625 72.010414 180.04688 71.15104ZM187.90625 70.80729Q187.90625 69.072914 188.85938 68.24479Q189.65625 67.55729 190.8125 67.55729Q192.09375 67.55729 192.90625 68.40104Q193.73438 69.229164 193.73438 70.71354Q193.73438 71.916664 193.375 72.604164Q193.01562 73.291664 192.3125 73.68229Q191.625 74.05729 190.8125 74.05729Q189.51562 74.05729 188.70312 73.229164Q187.90625 72.385414 187.90625 70.80729ZM188.98438 70.80729Q188.98438 71.99479 189.5 72.58854Q190.03125 73.18229 190.8125 73.18229Q191.60938 73.18229 192.125 72.58854Q192.64062 71.99479 192.64062 70.77604Q192.64062 69.61979 192.10938 69.02604Q191.59375 68.43229 190.8125 68.43229Q190.03125 68.43229 189.5 69.02604Q188.98438 69.604164 188.98438 70.80729ZM195.29688 73.916664L195.29688 67.697914L196.23438 67.697914L196.23438 68.572914Q196.92188 67.55729 198.21875 67.55729Q198.78125 67.55729 199.25 67.760414Q199.73438 67.96354 199.96875 68.291664Q200.20312 68.61979 200.29688 69.05729Q200.34375 69.354164 200.34375 70.08854L200.34375 73.916664L199.29688 73.916664L199.29688 70.135414Q199.29688 69.479164 199.17188 69.166664Q199.04688 68.854164 198.73438 68.666664Q198.42188 68.46354 198.0 68.46354Q197.32812 68.46354 196.82812 68.90104Q196.34375 69.322914 196.34375 70.510414L196.34375 73.916664L195.29688 73.916664ZM202.09375 74.43229L203.125 74.58854Q203.1875 75.05729 203.48438 75.27604Q203.875 75.572914 204.54688 75.572914Q205.28125 75.572914 205.67188 75.27604Q206.07812 74.979164 206.21875 74.46354Q206.3125 74.135414 206.29688 73.104164Q205.60938 73.916664 204.57812 73.916664Q203.29688 73.916664 202.59375 72.99479Q201.89062 72.05729 201.89062 70.77604Q201.89062 69.885414 202.20312 69.135414Q202.53125 68.36979 203.14062 67.96354Q203.75 67.55729 204.57812 67.55729Q205.6875 67.55729 206.40625 68.447914L206.40625 67.697914L207.375 67.697914L207.375 73.072914Q207.375 74.52604 207.07812 75.135414Q206.78125 75.74479 206.14062 76.08854Q205.5 76.447914 204.5625 76.447914Q203.45312 76.447914 202.76562 75.947914Q202.07812 75.447914 202.09375 74.43229ZM202.96875 70.697914Q202.96875 71.916664 203.45312 72.479164Q203.9375 73.041664 204.67188 73.041664Q205.40625 73.041664 205.89062 72.479164Q206.39062 71.916664 206.39062 70.729164Q206.39062 69.58854 205.875 69.010414Q205.375 68.43229 204.65625 68.43229Q203.95312 68.43229 203.45312 69.010414Q202.96875 69.572914 202.96875 70.697914ZM211.875 72.05729L212.90625 71.90104Q213.0 72.52604 213.39062 72.854164Q213.79688 73.18229 214.53125 73.18229Q215.25 73.18229 215.59375 72.90104Q215.95312 72.604164 215.95312 72.197914Q215.95312 71.83854 215.64062 71.635414Q215.42188 71.49479 214.5625 71.27604Q213.40625 70.979164 212.95312 70.77604Q212.51562 70.55729 212.28125 70.18229Q212.04688 69.80729 212.04688 69.33854Q212.04688 68.93229 212.23438 68.572914Q212.42188 68.21354 212.75 67.979164Q213.0 67.80729 213.42188 67.68229Q213.84375 67.55729 214.34375 67.55729Q215.0625 67.55729 215.60938 67.77604Q216.17188 67.979164 216.4375 68.33854Q216.70312 68.697914 216.79688 69.291664L215.76562 69.43229Q215.70312 68.96354 215.35938 68.697914Q215.03125 68.416664 214.40625 68.416664Q213.6875 68.416664 213.375 68.666664Q213.0625 68.90104 213.0625 69.229164Q213.0625 69.43229 213.1875 69.58854Q213.32812 69.760414 213.59375 69.86979Q213.75 69.93229 214.53125 70.135414Q215.65625 70.447914 216.09375 70.635414Q216.53125 70.822914 216.78125 71.18229Q217.03125 71.541664 217.03125 72.08854Q217.03125 72.61979 216.71875 73.08854Q216.42188 73.541664 215.84375 73.80729Q215.26562 74.05729 214.53125 74.05729Q213.3125 74.05729 212.67188 73.55729Q212.04688 73.041664 211.875 72.05729ZM218.90625 70.80729Q218.90625 69.072914 219.85938 68.24479Q220.65625 67.55729 221.8125 67.55729Q223.09375 67.55729 223.90625 68.40104Q224.73438 69.229164 224.73438 70.71354Q224.73438 71.916664 224.375 72.604164Q224.01562 73.291664 223.3125 73.68229Q222.625 74.05729 221.8125 74.05729Q220.51562 74.05729 219.70312 73.229164Q218.90625 72.385414 218.90625 70.80729ZM219.98438 70.80729Q219.98438 71.99479 220.5 72.58854Q221.03125 73.18229 221.8125 73.18229Q222.60938 73.18229 223.125 72.58854Q223.64062 71.99479 223.64062 70.77604Q223.64062 69.61979 223.10938 69.02604Q222.59375 68.43229 221.8125 68.43229Q221.03125 68.43229 220.5 69.02604Q219.98438 69.604164 219.98438 70.80729ZM226.29688 73.916664L226.29688 67.697914L227.23438 67.697914L227.23438 68.572914Q227.92188 67.55729 229.21875 67.55729Q229.78125 67.55729 230.25 67.760414Q230.73438 67.96354 230.96875 68.291664Q231.20312 68.61979 231.29688 69.05729Q231.34375 69.354164 231.34375 70.08854L231.34375 73.916664L230.29688 73.916664L230.29688 70.135414Q230.29688 69.479164 230.17188 69.166664Q230.04688 68.854164 229.73438 68.666664Q229.42188 68.46354 229.0 68.46354Q228.32812 68.46354 227.82812 68.90104Q227.34375 69.322914 227.34375 70.510414L227.34375 73.916664L226.29688 73.916664ZM233.09375 74.43229L234.125 74.58854Q234.1875 75.05729 234.48438 75.27604Q234.875 75.572914 235.54688 75.572914Q236.28125 75.572914 236.67188 75.27604Q237.07812 74.979164 237.21875 74.46354Q237.3125 74.135414 237.29688 73.104164Q236.60938 73.916664 235.57812 73.916664Q234.29688 73.916664 233.59375 72.99479Q232.89062 72.05729 232.89062 70.77604Q232.89062 69.885414 233.20312 69.135414Q233.53125 68.36979 234.14062 67.96354Q234.75 67.55729 235.57812 67.55729Q236.6875 67.55729 237.40625 68.447914L237.40625 67.697914L238.375 67.697914L238.375 73.072914Q238.375 74.52604 238.07812 75.135414Q237.78125 75.74479 237.14062 76.08854Q236.5 76.447914 235.5625 76.447914Q234.45312 76.447914 233.76562 75.947914Q233.07812 75.447914 233.09375 74.43229ZM233.96875 70.697914Q233.96875 71.916664 234.45312 72.479164Q234.9375 73.041664 235.67188 73.041664Q236.40625 73.041664 236.89062 72.479164Q237.39062 71.916664 237.39062 70.729164Q237.39062 69.58854 236.875 69.010414Q236.375 68.43229 235.65625 68.43229Q234.95312 68.43229 234.45312 69.010414Q233.96875 69.572914 233.96875 70.697914ZM245.59375 72.979164L245.75 73.90104Q245.29688 73.99479 244.95312 73.99479Q244.375 73.99479 244.0625 73.822914Q243.75 73.635414 243.60938 73.33854Q243.48438 73.041664 243.48438 72.08854L243.48438 68.510414L242.71875 68.510414L242.71875 67.697914L243.48438 67.697914L243.48438 66.15104L244.53125 65.52604L244.53125 67.697914L245.59375 67.697914L245.59375 68.510414L244.53125 68.510414L244.53125 72.15104Q244.53125 72.604164 244.57812 72.729164Q244.64062 72.854164 244.76562 72.93229Q244.89062 73.010414 245.125 73.010414Q245.3125 73.010414 245.59375 72.979164ZM246.29688 73.916664L246.29688 65.322914L247.34375 65.322914L247.34375 68.40104Q248.07812 67.55729 249.20312 67.55729Q249.90625 67.55729 250.40625 67.83854Q250.92188 68.104164 251.14062 68.58854Q251.35938 69.05729 251.35938 69.979164L251.35938 73.916664L250.3125 73.916664L250.3125 69.979164Q250.3125 69.18229 249.96875 68.822914Q249.625 68.46354 249.0 68.46354Q248.53125 68.46354 248.10938 68.71354Q247.70312 68.947914 247.51562 69.36979Q247.34375 69.77604 247.34375 70.510414L247.34375 73.916664L246.29688 73.916664ZM257.54688 71.916664L258.64062 72.041664Q258.39062 72.99479 257.6875 73.52604Q256.98438 74.05729 255.90625 74.05729Q254.54688 74.05729 253.73438 73.21354Q252.9375 72.36979 252.9375 70.854164Q252.9375 69.291664 253.75 68.43229Q254.5625 67.55729 255.84375 67.55729Q257.09375 67.55729 257.875 68.40104Q258.67188 69.24479 258.67188 70.791664Q258.67188 70.885414 258.67188 71.072914L254.03125 71.072914Q254.09375 72.104164 254.60938 72.65104Q255.125 73.18229 255.90625 73.18229Q256.48438 73.18229 256.89062 72.885414Q257.3125 72.572914 257.54688 71.916664ZM254.09375 70.21354L257.5625 70.21354Q257.5 69.416664 257.17188 69.02604Q256.65625 68.416664 255.85938 68.416664Q255.125 68.416664 254.625 68.90104Q254.14062 69.385414 254.09375 70.21354ZM259.90625 70.80729Q259.90625 69.072914 260.85938 68.24479Q261.65625 67.55729 262.8125 67.55729Q264.09375 67.55729 264.90625 68.40104Q265.73438 69.229164 265.73438 70.71354Q265.73438 71.916664 265.375 72.604164Q265.01562 73.291664 264.3125 73.68229Q263.625 74.05729 262.8125 74.05729Q261.51562 74.05729 260.70312 73.229164Q259.90625 72.385414 259.90625 70.80729ZM260.98438 70.80729Q260.98438 71.99479 261.5 72.58854Q262.03125 73.18229 262.8125 73.18229Q263.60938 73.18229 264.125 72.58854Q264.64062 71.99479 264.64062 70.77604Q264.64062 69.61979 264.10938 69.02604Q263.59375 68.43229 262.8125 68.43229Q262.03125 68.43229 261.5 69.02604Q260.98438 69.604164 260.98438 70.80729ZM272.59375 72.979164L272.75 73.90104Q272.29688 73.99479 271.95312 73.99479Q271.375 73.99479 271.0625 73.822914Q270.75 73.635414 270.60938 73.33854Q270.48438 73.041664 270.48438 72.08854L270.48438 68.510414L269.71875 68.510414L269.71875 67.697914L270.48438 67.697914L270.48438 66.15104L271.53125 65.52604L271.53125 67.697914L272.59375 67.697914L272.59375 68.510414L271.53125 68.510414L271.53125 72.15104Q271.53125 72.604164 271.57812 72.729164Q271.64062 72.854164 271.76562 72.93229Q271.89062 73.010414 272.125 73.010414Q272.3125 73.010414 272.59375 72.979164ZM273.28125 73.916664L273.28125 67.697914L274.23438 67.697914L274.23438 68.635414Q274.59375 67.979164 274.89062 67.77604Q275.20312 67.55729 275.57812 67.55729Q276.10938 67.55729 276.65625 67.885414L276.29688 68.86979Q275.90625 68.635414 275.53125 68.635414Q275.17188 68.635414 274.89062 68.854164Q274.625 69.05729 274.51562 69.43229Q274.32812 69.99479 274.32812 70.65104L274.32812 73.916664L273.28125 73.916664ZM281.35938 73.15104Q280.76562 73.65104 280.21875 73.854164Q279.6875 74.05729 279.0625 74.05729Q278.03125 74.05729 277.48438 73.55729Q276.9375 73.05729 276.9375 72.27604Q276.9375 71.822914 277.14062 71.447914Q277.34375 71.05729 277.6875 70.83854Q278.03125 70.604164 278.45312 70.49479Q278.75 70.40104 279.39062 70.322914Q280.65625 70.18229 281.26562 69.96354Q281.26562 69.74479 281.26562 69.697914Q281.26562 69.041664 280.96875 68.77604Q280.5625 68.43229 279.76562 68.43229Q279.03125 68.43229 278.67188 68.697914Q278.3125 68.947914 278.14062 69.604164L277.10938 69.46354Q277.25 68.80729 277.57812 68.40104Q277.90625 67.99479 278.51562 67.77604Q279.125 67.55729 279.92188 67.55729Q280.71875 67.55729 281.21875 67.74479Q281.71875 67.93229 281.95312 68.21354Q282.1875 68.49479 282.28125 68.93229Q282.32812 69.197914 282.32812 69.90104L282.32812 71.30729Q282.32812 72.77604 282.39062 73.166664Q282.46875 73.55729 282.67188 73.916664L281.5625 73.916664Q281.40625 73.58854 281.35938 73.15104ZM281.26562 70.791664Q280.6875 71.02604 279.54688 71.197914Q278.89062 71.291664 278.625 71.416664Q278.35938 71.52604 278.20312 71.74479Q278.0625 71.96354 278.0625 72.24479Q278.0625 72.666664 278.375 72.947914Q278.70312 73.229164 279.3125 73.229164Q279.92188 73.229164 280.39062 72.96354Q280.875 72.697914 281.09375 72.229164Q281.26562 71.86979 281.26562 71.18229L281.26562 70.791664ZM284.29688 73.916664L284.29688 67.697914L285.23438 67.697914L285.23438 68.572914Q285.92188 67.55729 287.21875 67.55729Q287.78125 67.55729 288.25 67.760414Q288.73438 67.96354 288.96875 68.291664Q289.20312 68.61979 289.29688 69.05729Q289.34375 69.354164 289.34375 70.08854L289.34375 73.916664L288.29688 73.916664L288.29688 70.135414Q288.29688 69.479164 288.17188 69.166664Q288.04688 68.854164 287.73438 68.666664Q287.42188 68.46354 287.0 68.46354Q286.32812 68.46354 285.82812 68.90104Q285.34375 69.322914 285.34375 70.510414L285.34375 73.916664L284.29688 73.916664ZM291.09375 74.43229L292.125 74.58854Q292.1875 75.05729 292.48438 75.27604Q292.875 75.572914 293.54688 75.572914Q294.28125 75.572914 294.67188 75.27604Q295.07812 74.979164 295.21875 74.46354Q295.3125 74.135414 295.29688 73.104164Q294.60938 73.916664 293.57812 73.916664Q292.29688 73.916664 291.59375 72.99479Q290.89062 72.05729 290.89062 70.77604Q290.89062 69.885414 291.20312 69.135414Q291.53125 68.36979 292.14062 67.96354Q292.75 67.55729 293.57812 67.55729Q294.6875 67.55729 295.40625 68.447914L295.40625 67.697914L296.375 67.697914L296.375 73.072914Q296.375 74.52604 296.07812 75.135414Q295.78125 75.74479 295.14062 76.08854Q294.5 76.447914 293.5625 76.447914Q292.45312 76.447914 291.76562 75.947914Q291.07812 75.447914 291.09375 74.43229ZM291.96875 70.697914Q291.96875 71.916664 292.45312 72.479164Q292.9375 73.041664 293.67188 73.041664Q294.40625 73.041664 294.89062 72.479164Q295.39062 71.916664 295.39062 70.729164Q295.39062 69.58854 294.875 69.010414Q294.375 68.43229 293.65625 68.43229Q292.95312 68.43229 292.45312 69.010414Q291.96875 69.572914 291.96875 70.697914Z" fill-rule="nonzero"/><path stroke="#fbbc04" stroke-width="4.0" stroke-linecap="butt" d="M313.5 69.916664L325.5 69.916664" fill-rule="nonzero"/><path fill="#1a1a1a" d="M334.04688 71.15104L335.10938 71.05729Q335.1875 71.71354 335.46875 72.11979Q335.75 72.52604 336.32812 72.791664Q336.92188 73.041664 337.65625 73.041664Q338.29688 73.041664 338.79688 72.854164Q339.29688 72.65104 339.53125 72.322914Q339.78125 71.979164 339.78125 71.58854Q339.78125 71.18229 339.54688 70.885414Q339.3125 70.572914 338.78125 70.36979Q338.42188 70.229164 337.23438 69.947914Q336.0625 69.666664 335.59375 69.416664Q334.96875 69.08854 334.67188 68.61979Q334.375 68.135414 334.375 67.541664Q334.375 66.90104 334.73438 66.33854Q335.10938 65.760414 335.8125 65.479164Q336.53125 65.18229 337.39062 65.18229Q338.34375 65.18229 339.07812 65.49479Q339.8125 65.791664 340.20312 66.40104Q340.59375 66.99479 340.625 67.74479L339.53125 67.822914Q339.4375 67.010414 338.92188 66.604164Q338.42188 66.18229 337.4375 66.18229Q336.40625 66.18229 335.9375 66.55729Q335.46875 66.93229 335.46875 67.46354Q335.46875 67.93229 335.79688 68.229164Q336.125 68.52604 337.5 68.83854Q338.89062 69.15104 339.40625 69.385414Q340.15625 69.74479 340.51562 70.27604Q340.875 70.791664 340.875 71.49479Q340.875 72.18229 340.48438 72.791664Q340.09375 73.385414 339.35938 73.729164Q338.625 74.05729 337.70312 74.05729Q336.53125 74.05729 335.73438 73.729164Q334.95312 73.385414 334.5 72.697914Q334.0625 72.010414 334.04688 71.15104ZM341.90625 70.80729Q341.90625 69.072914 342.85938 68.24479Q343.65625 67.55729 344.8125 67.55729Q346.09375 67.55729 346.90625 68.40104Q347.73438 69.229164 347.73438 70.71354Q347.73438 71.916664 347.375 72.604164Q347.01562 73.291664 346.3125 73.68229Q345.625 74.05729 344.8125 74.05729Q343.51562 74.05729 342.70312 73.229164Q341.90625 72.385414 341.90625 70.80729ZM342.98438 70.80729Q342.98438 71.99479 343.5 72.58854Q344.03125 73.18229 344.8125 73.18229Q345.60938 73.18229 346.125 72.58854Q346.64062 71.99479 346.64062 70.77604Q346.64062 69.61979 346.10938 69.02604Q345.59375 68.43229 344.8125 68.43229Q344.03125 68.43229 343.5 69.02604Q342.98438 69.604164 342.98438 70.80729ZM349.29688 73.916664L349.29688 67.697914L350.23438 67.697914L350.23438 68.572914Q350.92188 67.55729 352.21875 67.55729Q352.78125 67.55729 353.25 67.760414Q353.73438 67.96354 353.96875 68.291664Q354.20312 68.61979 354.29688 69.05729Q354.34375 69.354164 354.34375 70.08854L354.34375 73.916664L353.29688 73.916664L353.29688 70.135414Q353.29688 69.479164 353.17188 69.166664Q353.04688 68.854164 352.73438 68.666664Q352.42188 68.46354 352.0 68.46354Q351.32812 68.46354 350.82812 68.90104Q350.34375 69.322914 350.34375 70.510414L350.34375 73.916664L349.29688 73.916664ZM356.09375 74.43229L357.125 74.58854Q357.1875 75.05729 357.48438 75.27604Q357.875 75.572914 358.54688 75.572914Q359.28125 75.572914 359.67188 75.27604Q360.07812 74.979164 360.21875 74.46354Q360.3125 74.135414 360.29688 73.104164Q359.60938 73.916664 358.57812 73.916664Q357.29688 73.916664 356.59375 72.99479Q355.89062 72.05729 355.89062 70.77604Q355.89062 69.885414 356.20312 69.135414Q356.53125 68.36979 357.14062 67.96354Q357.75 67.55729 358.57812 67.55729Q359.6875 67.55729 360.40625 68.447914L360.40625 67.697914L361.375 67.697914L361.375 73.072914Q361.375 74.52604 361.07812 75.135414Q360.78125 75.74479 360.14062 76.08854Q359.5 76.447914 358.5625 76.447914Q357.45312 76.447914 356.76562 75.947914Q356.07812 75.447914 356.09375 74.43229ZM356.96875 70.697914Q356.96875 71.916664 357.45312 72.479164Q357.9375 73.041664 358.67188 73.041664Q359.40625 73.041664 359.89062 72.479164Q360.39062 71.916664 360.39062 70.729164Q360.39062 69.58854 359.875 69.010414Q359.375 68.43229 358.65625 68.43229Q357.95312 68.43229 357.45312 69.010414Q356.96875 69.572914 356.96875 70.697914ZM365.875 72.05729L366.90625 71.90104Q367.0 72.52604 367.39062 72.854164Q367.79688 73.18229 368.53125 73.18229Q369.25 73.18229 369.59375 72.90104Q369.95312 72.604164 369.95312 72.197914Q369.95312 71.83854 369.64062 71.635414Q369.42188 71.49479 368.5625 71.27604Q367.40625 70.979164 366.95312 70.77604Q366.51562 70.55729 366.28125 70.18229Q366.04688 69.80729 366.04688 69.33854Q366.04688 68.93229 366.23438 68.572914Q366.42188 68.21354 366.75 67.979164Q367.0 67.80729 367.42188 67.68229Q367.84375 67.55729 368.34375 67.55729Q369.0625 67.55729 369.60938 67.77604Q370.17188 67.979164 370.4375 68.33854Q370.70312 68.697914 370.79688 69.291664L369.76562 69.43229Q369.70312 68.96354 369.35938 68.697914Q369.03125 68.416664 368.40625 68.416664Q367.6875 68.416664 367.375 68.666664Q367.0625 68.90104 367.0625 69.229164Q367.0625 69.43229 367.1875 69.58854Q367.32812 69.760414 367.59375 69.86979Q367.75 69.93229 368.53125 70.135414Q369.65625 70.447914 370.09375 70.635414Q370.53125 70.822914 370.78125 71.18229Q371.03125 71.541664 371.03125 72.08854Q371.03125 72.61979 370.71875 73.08854Q370.42188 73.541664 369.84375 73.80729Q369.26562 74.05729 368.53125 74.05729Q367.3125 74.05729 366.67188 73.55729Q366.04688 73.041664 365.875 72.05729ZM372.90625 70.80729Q372.90625 69.072914 373.85938 68.24479Q374.65625 67.55729 375.8125 67.55729Q377.09375 67.55729 377.90625 68.40104Q378.73438 69.229164 378.73438 70.71354Q378.73438 71.916664 378.375 72.604164Q378.01562 73.291664 377.3125 73.68229Q376.625 74.05729 375.8125 74.05729Q374.51562 74.05729 373.70312 73.229164Q372.90625 72.385414 372.90625 70.80729ZM373.98438 70.80729Q373.98438 71.99479 374.5 72.58854Q375.03125 73.18229 375.8125 73.18229Q376.60938 73.18229 377.125 72.58854Q377.64062 71.99479 377.64062 70.77604Q377.64062 69.61979 377.10938 69.02604Q376.59375 68.43229 375.8125 68.43229Q375.03125 68.43229 374.5 69.02604Q373.98438 69.604164 373.98438 70.80729ZM380.29688 73.916664L380.29688 67.697914L381.23438 67.697914L381.23438 68.572914Q381.92188 67.55729 383.21875 67.55729Q383.78125 67.55729 384.25 67.760414Q384.73438 67.96354 384.96875 68.291664Q385.20312 68.61979 385.29688 69.05729Q385.34375 69.354164 385.34375 70.08854L385.34375 73.916664L384.29688 73.916664L384.29688 70.135414Q384.29688 69.479164 384.17188 69.166664Q384.04688 68.854164 383.73438 68.666664Q383.42188 68.46354 383.0 68.46354Q382.32812 68.46354 381.82812 68.90104Q381.34375 69.322914 381.34375 70.510414L381.34375 73.916664L380.29688 73.916664ZM387.09375 74.43229L388.125 74.58854Q388.1875 75.05729 388.48438 75.27604Q388.875 75.572914 389.54688 75.572914Q390.28125 75.572914 390.67188 75.27604Q391.07812 74.979164 391.21875 74.46354Q391.3125 74.135414 391.29688 73.104164Q390.60938 73.916664 389.57812 73.916664Q388.29688 73.916664 387.59375 72.99479Q386.89062 72.05729 386.89062 70.77604Q386.89062 69.885414 387.20312 69.135414Q387.53125 68.36979 388.14062 67.96354Q388.75 67.55729 389.57812 67.55729Q390.6875 67.55729 391.40625 68.447914L391.40625 67.697914L392.375 67.697914L392.375 73.072914Q392.375 74.52604 392.07812 75.135414Q391.78125 75.74479 391.14062 76.08854Q390.5 76.447914 389.5625 76.447914Q388.45312 76.447914 387.76562 75.947914Q387.07812 75.447914 387.09375 74.43229ZM387.96875 70.697914Q387.96875 71.916664 388.45312 72.479164Q388.9375 73.041664 389.67188 73.041664Q390.40625 73.041664 390.89062 72.479164Q391.39062 71.916664 391.39062 70.729164Q391.39062 69.58854 390.875 69.010414Q390.375 68.43229 389.65625 68.43229Q388.95312 68.43229 388.45312 69.010414Q387.96875 69.572914 387.96875 70.697914ZM399.59375 72.979164L399.75 73.90104Q399.29688 73.99479 398.95312 73.99479Q398.375 73.99479 398.0625 73.822914Q397.75 73.635414 397.60938 73.33854Q397.48438 73.041664 397.48438 72.08854L397.48438 68.510414L396.71875 68.510414L396.71875 67.697914L397.48438 67.697914L397.48438 66.15104L398.53125 65.52604L398.53125 67.697914L399.59375 67.697914L399.59375 68.510414L398.53125 68.510414L398.53125 72.15104Q398.53125 72.604164 398.57812 72.729164Q398.64062 72.854164 398.76562 72.93229Q398.89062 73.010414 399.125 73.010414Q399.3125 73.010414 399.59375 72.979164ZM400.29688 73.916664L400.29688 65.322914L401.34375 65.322914L401.34375 68.40104Q402.07812 67.55729 403.20312 67.55729Q403.90625 67.55729 404.40625 67.83854Q404.92188 68.104164 405.14062 68.58854Q405.35938 69.05729 405.35938 69.979164L405.35938 73.916664L404.3125 73.916664L404.3125 69.979164Q404.3125 69.18229 403.96875 68.822914Q403.625 68.46354 403.0 68.46354Q402.53125 68.46354 402.10938 68.71354Q401.70312 68.947914 401.51562 69.36979Q401.34375 69.77604 401.34375 70.510414L401.34375 73.916664L400.29688 73.916664ZM411.54688 71.916664L412.64062 72.041664Q412.39062 72.99479 411.6875 73.52604Q410.98438 74.05729 409.90625 74.05729Q408.54688 74.05729 407.73438 73.21354Q406.9375 72.36979 406.9375 70.854164Q406.9375 69.291664 407.75 68.43229Q408.5625 67.55729 409.84375 67.55729Q411.09375 67.55729 411.875 68.40104Q412.67188 69.24479 412.67188 70.791664Q412.67188 70.885414 412.67188 71.072914L408.03125 71.072914Q408.09375 72.104164 408.60938 72.65104Q409.125 73.18229 409.90625 73.18229Q410.48438 73.18229 410.89062 72.885414Q411.3125 72.572914 411.54688 71.916664ZM408.09375 70.21354L411.5625 70.21354Q411.5 69.416664 411.17188 69.02604Q410.65625 68.416664 409.85938 68.416664Q409.125 68.416664 408.625 68.90104Q408.14062 69.385414 408.09375 70.21354ZM413.90625 70.80729Q413.90625 69.072914 414.85938 68.24479Q415.65625 67.55729 416.8125 67.55729Q418.09375 67.55729 418.90625 68.40104Q419.73438 69.229164 419.73438 70.71354Q419.73438 71.916664 419.375 72.604164Q419.01562 73.291664 418.3125 73.68229Q417.625 74.05729 416.8125 74.05729Q415.51562 74.05729 414.70312 73.229164Q413.90625 72.385414 413.90625 70.80729ZM414.98438 70.80729Q414.98438 71.99479 415.5 72.58854Q416.03125 73.18229 416.8125 73.18229Q417.60938 73.18229 418.125 72.58854Q418.64062 71.99479 418.64062 70.77604Q418.64062 69.61979 418.10938 69.02604Q417.59375 68.43229 416.8125 68.43229Q416.03125 68.43229 415.5 69.02604Q414.98438 69.604164 414.98438 70.80729ZM428.26562 66.77604L426.23438 66.77604L426.23438 65.99479L428.26562 65.99479L428.26562 65.322914L429.3125 65.322914L429.3125 65.99479L430.15625 65.99479L430.15625 66.77604L429.3125 66.77604L429.3125 73.916664L428.32812 73.916664L428.32812 73.135414Q427.73438 74.05729 426.59375 74.05729Q425.84375 74.05729 425.21875 73.65104Q424.59375 73.229164 424.25 72.49479Q423.90625 71.760414 423.90625 70.80729Q423.90625 69.885414 424.21875 69.11979Q424.53125 68.354164 425.15625 67.96354Q425.78125 67.55729 426.54688 67.55729Q427.10938 67.55729 427.54688 67.791664Q427.98438 68.02604 428.26562 68.40104L428.26562 66.77604ZM425.0 70.80729Q425.0 72.010414 425.5 72.604164Q426.0 73.18229 426.6875 73.18229Q427.375 73.18229 427.85938 72.61979Q428.34375 72.05729 428.34375 70.90104Q428.34375 69.61979 427.84375 69.02604Q427.35938 68.43229 426.64062 68.43229Q425.9375 68.43229 425.46875 69.010414Q425.0 69.572914 425.0 70.80729ZM430.90625 70.80729Q430.90625 69.072914 431.85938 68.24479Q432.65625 67.55729 433.8125 67.55729Q435.09375 67.55729 435.90625 68.40104Q436.73438 69.229164 436.73438 70.71354Q436.73438 71.916664 436.375 72.604164Q436.01562 73.291664 435.3125 73.68229Q434.625 74.05729 433.8125 74.05729Q432.51562 74.05729 431.70312 73.229164Q430.90625 72.385414 430.90625 70.80729ZM431.98438 70.80729Q431.98438 71.99479 432.5 72.58854Q433.03125 73.18229 433.8125 73.18229Q434.60938 73.18229 435.125 72.58854Q435.64062 71.99479 435.64062 70.77604Q435.64062 69.61979 435.10938 69.02604Q434.59375 68.43229 433.8125 68.43229Q433.03125 68.43229 432.5 69.02604Q431.98438 69.604164 431.98438 70.80729ZM442.35938 73.15104Q441.76562 73.65104 441.21875 73.854164Q440.6875 74.05729 440.0625 74.05729Q439.03125 74.05729 438.48438 73.55729Q437.9375 73.05729 437.9375 72.27604Q437.9375 71.822914 438.14062 71.447914Q438.34375 71.05729 438.6875 70.83854Q439.03125 70.604164 439.45312 70.49479Q439.75 70.40104 440.39062 70.322914Q441.65625 70.18229 442.26562 69.96354Q442.26562 69.74479 442.26562 69.697914Q442.26562 69.041664 441.96875 68.77604Q441.5625 68.43229 440.76562 68.43229Q440.03125 68.43229 439.67188 68.697914Q439.3125 68.947914 439.14062 69.604164L438.10938 69.46354Q438.25 68.80729 438.57812 68.40104Q438.90625 67.99479 439.51562 67.77604Q440.125 67.55729 440.92188 67.55729Q441.71875 67.55729 442.21875 67.74479Q442.71875 67.93229 442.95312 68.21354Q443.1875 68.49479 443.28125 68.93229Q443.32812 69.197914 443.32812 69.90104L443.32812 71.30729Q443.32812 72.77604 443.39062 73.166664Q443.46875 73.55729 443.67188 73.916664L442.5625 73.916664Q442.40625 73.58854 442.35938 73.15104ZM442.26562 70.791664Q441.6875 71.02604 440.54688 71.197914Q439.89062 71.291664 439.625 71.416664Q439.35938 71.52604 439.20312 71.74479Q439.0625 71.96354 439.0625 72.24479Q439.0625 72.666664 439.375 72.947914Q439.70312 73.229164 440.3125 73.229164Q440.92188 73.229164 441.39062 72.96354Q441.875 72.697914 442.09375 72.229164Q442.26562 71.86979 442.26562 71.18229L442.26562 70.791664ZM440.1875 75.822914L440.1875 74.61979L441.39062 74.61979L441.39062 75.822914L440.1875 75.822914ZM445.29688 73.916664L445.29688 67.697914L446.23438 67.697914L446.23438 68.572914Q446.92188 67.55729 448.21875 67.55729Q448.78125 67.55729 449.25 67.760414Q449.73438 67.96354 449.96875 68.291664Q450.20312 68.61979 450.29688 69.05729Q450.34375 69.354164 450.34375 70.08854L450.34375 73.916664L449.29688 73.916664L449.29688 70.135414Q449.29688 69.479164 449.17188 69.166664Q449.04688 68.854164 448.73438 68.666664Q448.42188 68.46354 448.0 68.46354Q447.32812 68.46354 446.82812 68.90104Q446.34375 69.322914 446.34375 70.510414L446.34375 73.916664L445.29688 73.916664Z" fill-rule="nonzero"/><path fill="#757575" d="M24.25625 37.75625L26.0375 37.6Q26.1625 38.6625 26.615625 39.35Q27.084375 40.0375 28.053125 40.475Q29.0375 40.896873 30.271875 40.896873Q31.35 40.896873 32.178123 40.584373Q33.00625 40.25625 33.4125 39.69375Q33.81875 39.13125 33.81875 38.459373Q33.81875 37.7875 33.428123 37.2875Q33.0375 36.7875 32.146873 36.44375Q31.56875 36.209373 29.584375 35.740623Q27.615625 35.271873 26.834375 34.85Q25.803125 34.31875 25.303125 33.521873Q24.803125 32.725 24.803125 31.740623Q24.803125 30.646873 25.4125 29.709373Q26.021875 28.771873 27.209375 28.287498Q28.396875 27.787498 29.834375 27.787498Q31.428125 27.787498 32.646873 28.303123Q33.865623 28.818748 34.50625 29.818748Q35.1625 30.803123 35.209373 32.06875L33.396873 32.209373Q33.25625 30.849998 32.4125 30.162498Q31.56875 29.459373 29.9125 29.459373Q28.19375 29.459373 27.396875 30.099998Q26.615625 30.724998 26.615625 31.599998Q26.615625 32.38125 27.178125 32.88125Q27.725 33.38125 30.0375 33.896873Q32.35 34.4125 33.209373 34.803123Q34.459373 35.38125 35.053123 36.271873Q35.646873 37.146873 35.646873 38.303123Q35.646873 39.44375 34.990623 40.459373Q34.334373 41.475 33.1 42.0375Q31.88125 42.6 30.35 42.6Q28.4125 42.6 27.1 42.0375Q25.7875 41.459373 25.0375 40.31875Q24.2875 39.178123 24.25625 37.75625ZM37.021873 37.1625Q37.021873 34.2875 38.615623 32.896873Q39.959373 31.740623 41.88125 31.740623Q44.021873 31.740623 45.365623 33.146873Q46.725 34.553123 46.725 37.021873Q46.725 39.021873 46.13125 40.178123Q45.5375 41.31875 44.38125 41.959373Q43.240623 42.584373 41.88125 42.584373Q39.69375 42.584373 38.35 41.19375Q37.021873 39.7875 37.021873 37.1625ZM38.81875 37.1625Q38.81875 39.1625 39.678123 40.146873Q40.553123 41.13125 41.88125 41.13125Q43.19375 41.13125 44.053123 40.146873Q44.928123 39.146873 44.928123 37.1Q44.928123 35.178123 44.053123 34.19375Q43.178123 33.19375 41.88125 33.19375Q40.553123 33.19375 39.678123 34.19375Q38.81875 35.178123 38.81875 37.1625ZM53.959373 39.25625L55.709373 38.975Q55.85 40.021873 56.521873 40.584373Q57.19375 41.13125 58.396873 41.13125Q59.6 41.13125 60.178123 40.646873Q60.771873 40.146873 60.771873 39.490623Q60.771873 38.896873 60.25625 38.553123Q59.896873 38.31875 58.459373 37.959373Q56.521873 37.459373 55.771873 37.115623Q55.0375 36.75625 54.646873 36.13125Q54.25625 35.490623 54.25625 34.725Q54.25625 34.0375 54.56875 33.44375Q54.896873 32.85 55.44375 32.459373Q55.85 32.1625 56.553123 31.959373Q57.271873 31.740623 58.084373 31.740623Q59.303123 31.740623 60.225 32.1Q61.146873 32.44375 61.584373 33.053123Q62.021873 33.646873 62.19375 34.646873L60.475 34.88125Q60.35 34.084373 59.7875 33.646873Q59.225 33.19375 58.209373 33.19375Q56.990623 33.19375 56.475 33.6Q55.959373 33.990623 55.959373 34.521873Q55.959373 34.865623 56.178123 35.146873Q56.38125 35.428123 56.85 35.615623Q57.115623 35.709373 58.396873 36.053123Q60.271873 36.553123 61.00625 36.88125Q61.740623 37.19375 62.1625 37.803123Q62.584373 38.396873 62.584373 39.303123Q62.584373 40.178123 62.06875 40.959373Q61.553123 41.740623 60.584373 42.1625Q59.615623 42.584373 58.396873 42.584373Q56.38125 42.584373 55.31875 41.740623Q54.25625 40.896873 53.959373 39.25625ZM71.44375 41.06875Q70.45937 41.896873 69.55312 42.240623Q68.64687 42.584373 67.61562 42.584373Q65.9125 42.584373 64.99062 41.75625Q64.06875 40.9125 64.06875 39.615623Q64.06875 38.85 64.4125 38.225Q64.77187 37.6 65.33437 37.225Q65.89687 36.834373 66.6 36.63125Q67.11562 36.50625 68.1625 36.365623Q70.2875 36.115623 71.2875 35.771873Q71.30312 35.4125 71.30312 35.303123Q71.30312 34.240623 70.80312 33.7875Q70.13125 33.19375 68.80312 33.19375Q67.55312 33.19375 66.95937 33.63125Q66.38125 34.06875 66.1 35.178123L64.38125 34.94375Q64.61562 33.834373 65.14687 33.1625Q65.67812 32.475 66.69375 32.115623Q67.70937 31.740623 69.05312 31.740623Q70.38125 31.740623 71.20937 32.053123Q72.0375 32.365623 72.42812 32.85Q72.81875 33.31875 72.975 34.0375Q73.06875 34.490623 73.06875 35.6625L73.06875 38.00625Q73.06875 40.459373 73.17812 41.115623Q73.2875 41.75625 73.63125 42.35L71.7875 42.35Q71.52187 41.803123 71.44375 41.06875ZM71.2875 37.146873Q70.33437 37.5375 68.4125 37.803123Q67.33437 37.959373 66.88125 38.1625Q66.44375 38.35 66.19375 38.725Q65.94375 39.1 65.94375 39.56875Q65.94375 40.271873 66.475 40.740623Q67.00625 41.209373 68.0375 41.209373Q69.05312 41.209373 69.83437 40.771873Q70.63125 40.31875 71.00625 39.553123Q71.2875 38.94375 71.2875 37.7875L71.2875 37.146873ZM67.88125 30.693748L69.17812 27.959373L71.475 27.959373L69.33437 30.693748L67.88125 30.693748ZM75.6625 42.35L75.6625 31.974998L77.25625 31.974998L77.25625 33.459373Q78.39687 31.740623 80.55312 31.740623Q81.49062 31.740623 82.27187 32.084373Q83.06875 32.4125 83.45937 32.959373Q83.85 33.50625 84.00625 34.25625Q84.1 34.75625 84.1 35.975L84.1 42.35L82.33437 42.35L82.33437 36.0375Q82.33437 34.959373 82.13125 34.428123Q81.92812 33.896873 81.39687 33.584373Q80.88125 33.271873 80.17812 33.271873Q79.05312 33.271873 78.24062 33.990623Q77.42812 34.69375 77.42812 36.678123L77.42812 42.35L75.6625 42.35ZM85.6625 42.35L85.6625 28.037498L87.42812 28.037498L87.42812 33.1625Q88.6625 31.740623 90.5375 31.740623Q91.67812 31.740623 92.52187 32.19375Q93.38125 32.646873 93.74062 33.459373Q94.11562 34.25625 94.11562 35.771873L94.11562 42.35L92.36562 42.35L92.36562 35.771873Q92.36562 34.459373 91.7875 33.865623Q91.20937 33.25625 90.17812 33.25625Q89.39687 33.25625 88.69375 33.6625Q88.00625 34.06875 87.70937 34.771873Q87.42812 35.459373 87.42812 36.678123L87.42812 42.35L85.6625 42.35ZM105.50625 40.771873L105.75625 42.334373Q105.02187 42.490623 104.42812 42.490623Q103.475 42.490623 102.94375 42.19375Q102.42812 41.88125 102.20937 41.396873Q101.99062 40.896873 101.99062 39.31875L101.99062 33.35L100.70937 33.35L100.70937 31.974998L101.99062 31.974998L101.99062 29.412498L103.74062 28.349998L103.74062 31.974998L105.50625 31.974998L105.50625 33.35L103.74062 33.35L103.74062 39.4125Q103.74062 40.1625 103.83437 40.38125Q103.92812 40.584373 104.13125 40.725Q104.35 40.85 104.74062 40.85Q105.02187 40.85 105.50625 40.771873ZM107.6625 42.35L107.6625 28.037498L109.42812 28.037498L109.42812 33.1625Q110.6625 31.740623 112.5375 31.740623Q113.67812 31.740623 114.52187 32.19375Q115.38125 32.646873 115.74062 33.459373Q116.11562 34.25625 116.11562 35.771873L116.11562 42.35L114.36562 42.35L114.36562 35.771873Q114.36562 34.459373 113.7875 33.865623Q113.20937 33.25625 112.17812 33.25625Q111.39687 33.25625 110.69375 33.6625Q110.00625 34.06875 109.70937 34.771873Q109.42812 35.459373 109.42812 36.678123L109.42812 42.35L107.6625 42.35ZM118.81875 37.1625Q118.81875 39.084373 119.69375 40.146873Q120.50625 41.13125 121.88125 41.13125Q123.24062 41.13125 124.05312 40.146873Q124.92812 39.084373 124.92812 37.1Q124.92812 35.240623 124.05312 34.19375Q123.225 33.19375 121.88125 33.19375Q120.50625 33.19375 119.69375 34.178123Q118.81875 35.240623 118.81875 37.1625ZM126.95937 33.771873L126.95937 31.724998L128.85 31.724998L128.85 33.334373Q128.85 34.553123 128.475 35.19375Q128.00626 36.0375 126.725 36.740623Q126.725 36.865623 126.725 37.021873Q126.725 40.646873 124.38125 41.94375Q123.24062 42.584373 121.88125 42.584373Q119.64687 42.584373 118.35 41.19375Q117.02187 39.740623 117.02187 37.1625Q117.02187 34.2875 118.61562 32.896873Q119.95937 31.740623 121.88125 31.740623Q124.02187 31.740623 125.38125 33.146873Q126.39687 34.209373 126.64687 35.88125Q127.31875 35.475 127.6 35.0375Q127.89687 34.6 127.88125 33.771873L126.95937 33.771873ZM123.06875 30.693748L121.64687 30.693748L119.39687 27.959373L121.74062 27.959373L123.06875 30.693748ZM130.67813 30.053123L130.67813 28.037498L132.44376 28.037498L132.44376 30.053123L130.67813 30.053123ZM130.67813 42.35L130.67813 31.974998L132.44376 31.974998L132.44376 42.35L130.67813 42.35ZM140.35 43.209373L142.05313 43.459373Q142.1625 44.25625 142.64688 44.615623Q143.30313 45.1 144.44376 45.1Q145.6625 45.1 146.31876 44.615623Q146.99063 44.13125 147.225 43.25625Q147.36563 42.709373 147.35 40.990623Q146.19376 42.35 144.475 42.35Q142.33438 42.35 141.1625 40.803123Q139.99063 39.25625 139.99063 37.1Q139.99063 35.615623 140.52188 34.365623Q141.06876 33.115623 142.08438 32.428123Q143.11563 31.740623 144.49063 31.740623Q146.31876 31.740623 147.52188 33.225L147.52188 31.974998L149.13126 31.974998L149.13126 40.94375Q149.13126 43.365623 148.63126 44.365623Q148.14688 45.38125 147.06876 45.959373Q146.00626 46.553123 144.44376 46.553123Q142.6 46.553123 141.44376 45.725Q140.30313 44.896873 140.35 43.209373ZM141.80313 36.975Q141.80313 39.021873 142.61563 39.959373Q143.42813 40.896873 144.64688 40.896873Q145.85 40.896873 146.6625 39.959373Q147.49063 39.021873 147.49063 37.0375Q147.49063 35.13125 146.64688 34.1625Q145.80313 33.19375 144.61563 33.19375Q143.44376 33.19375 142.61563 34.146873Q141.80313 35.1 141.80313 36.975ZM151.67813 30.053123L151.67813 28.037498L153.44376 28.037498L153.44376 30.053123L151.67813 30.053123ZM151.67813 42.35L151.67813 31.974998L153.44376 31.974998L153.44376 42.35L151.67813 42.35ZM162.44376 41.06875Q161.45938 41.896873 160.55313 42.240623Q159.64688 42.584373 158.61563 42.584373Q156.9125 42.584373 155.99063 41.75625Q155.06876 40.9125 155.06876 39.615623Q155.06876 38.85 155.4125 38.225Q155.77188 37.6 156.33438 37.225Q156.89688 36.834373 157.6 36.63125Q158.11563 36.50625 159.1625 36.365623Q161.2875 36.115623 162.2875 35.771873Q162.30313 35.4125 162.30313 35.303123Q162.30313 34.240623 161.80313 33.7875Q161.13126 33.19375 159.80313 33.19375Q158.55313 33.19375 157.95938 33.63125Q157.38126 34.06875 157.1 35.178123L155.38126 34.94375Q155.61563 33.834373 156.14688 33.1625Q156.67813 32.475 157.69376 32.115623Q158.70938 31.740623 160.05313 31.740623Q161.38126 31.740623 162.20938 32.053123Q163.0375 32.365623 163.42813 32.85Q163.81876 33.31875 163.975 34.0375Q164.06876 34.490623 164.06876 35.6625L164.06876 38.00625Q164.06876 40.459373 164.17813 41.115623Q164.2875 41.75625 164.63126 42.35L162.7875 42.35Q162.52188 41.803123 162.44376 41.06875ZM162.2875 37.146873Q161.33438 37.5375 159.4125 37.803123Q158.33438 37.959373 157.88126 38.1625Q157.44376 38.35 157.19376 38.725Q156.94376 39.1 156.94376 39.56875Q156.94376 40.271873 157.475 40.740623Q158.00626 41.209373 159.0375 41.209373Q160.05313 41.209373 160.83438 40.771873Q161.63126 40.31875 162.00626 39.553123Q162.2875 38.94375 162.2875 37.7875L162.2875 37.146873ZM166.6625 42.35L166.6625 31.974998L168.25626 31.974998L168.25626 33.459373Q169.39688 31.740623 171.55313 31.740623Q172.49063 31.740623 173.27188 32.084373Q174.06876 32.4125 174.45938 32.959373Q174.85 33.50625 175.00626 34.25625Q175.1 34.75625 175.1 35.975L175.1 42.35L173.33438 42.35L173.33438 36.0375Q173.33438 34.959373 173.13126 34.428123Q172.92813 33.896873 172.39688 33.584373Q171.88126 33.271873 171.17813 33.271873Q170.05313 33.271873 169.24063 33.990623Q168.42813 34.69375 168.42813 36.678123L168.42813 42.35L166.6625 42.35ZM181.49063 42.35L185.2875 36.959373L181.7875 31.974998L183.975 31.974998L185.56876 34.4125Q186.02188 35.1 186.2875 35.56875Q186.725 34.928123 187.08438 34.428123L188.83438 31.974998L190.92813 31.974998L187.35 36.865623L191.20938 42.35L189.05313 42.35L186.9125 39.13125L186.35 38.25625L183.63126 42.35L181.49063 42.35ZM201.25626 34.021873L201.25626 31.974998L203.13126 31.974998L203.13126 33.584373Q203.13126 35.115623 202.7875 35.725Q201.88126 37.2875 200.0375 37.490623L200.0375 42.35L198.45938 42.35L198.45938 40.81875Q197.25626 42.584373 195.17813 42.584373Q194.27188 42.584373 193.475 42.240623Q192.67813 41.896873 192.2875 41.365623Q191.89688 40.81875 191.74063 40.0375Q191.63126 39.521873 191.63126 38.396873L191.63126 31.974998L193.38126 31.974998L193.38126 37.725Q193.38126 39.13125 193.49063 39.584373Q193.83438 41.06875 195.52188 41.06875Q196.33438 41.06875 197.02188 40.6625Q197.70938 40.25625 197.99063 39.56875Q198.2875 38.865623 198.2875 37.5375L198.2875 31.974998L200.0375 31.974998L200.0375 36.740623Q201.27188 36.521873 201.89688 35.584373Q202.1625 35.178123 202.1625 34.021873L201.25626 34.021873ZM195.2875 29.521873Q195.83438 29.459373 195.99063 29.412498Q196.50626 29.240623 196.52188 28.865623Q196.5375 28.631248 196.25626 28.474998Q195.83438 28.256248 194.94376 28.256248Q194.64688 28.256248 194.0375 28.303123L193.92813 27.303123Q194.30313 27.224998 195.33438 27.224998Q196.5375 27.240623 197.2875 27.615623Q198.13126 28.037498 198.1625 28.771873Q198.19376 29.974998 196.38126 30.193748L196.38126 30.693748L195.2875 30.693748L195.2875 29.521873ZM210.63126 42.35L210.63126 28.037498L212.38126 28.037498L212.38126 42.35L210.63126 42.35ZM214.58438 46.35L214.39688 44.69375Q214.975 44.85 215.39688 44.85Q215.99063 44.85 216.33438 44.646873Q216.69376 44.459373 216.9125 44.115623Q217.08438 43.85 217.45938 42.803123Q217.50626 42.646873 217.61563 42.365623L213.67813 31.974998L215.56876 31.974998L217.725 37.990623Q218.14688 39.13125 218.475 40.38125Q218.7875 39.178123 219.19376 38.021873L221.4125 31.974998L223.17813 31.974998L219.225 42.521873Q218.6 44.240623 218.24063 44.88125Q217.77188 45.75625 217.1625 46.146873Q216.56876 46.553123 215.725 46.553123Q215.20938 46.553123 214.58438 46.35ZM217.45938 30.693748L218.75626 27.959373L221.05313 27.959373L218.9125 30.693748L217.45938 30.693748Z" fill-rule="nonzero"/></svg>